<?xml version="1.0" encoding="utf-8" standalone="no"?>
<!DOCTYPE svg PUBLIC "-//W3C//DTD SVG 1.1//EN"
  "http://www.w3.org/Graphics/SVG/1.1/DTD/svg11.dtd">
<svg xmlns:xlink="http://www.w3.org/1999/xlink" width="460.8pt" height="345.6pt" viewBox="0 0 460.8 345.6" xmlns="http://www.w3.org/2000/svg" version="1.1">
 <metadata>
  <rdf:RDF xmlns:dc="http://purl.org/dc/elements/1.1/" xmlns:cc="http://creativecommons.org/ns#" xmlns:rdf="http://www.w3.org/1999/02/22-rdf-syntax-ns#">
   <cc:Work>
    <dc:type rdf:resource="http://purl.org/dc/dcmitype/StillImage"/>
    <dc:date>2023-01-27T17:09:52.943746</dc:date>
    <dc:format>image/svg+xml</dc:format>
    <dc:creator>
     <cc:Agent>
      <dc:title>Matplotlib v3.6.2, https://matplotlib.org/</dc:title>
     </cc:Agent>
    </dc:creator>
   </cc:Work>
  </rdf:RDF>
 </metadata>
 <defs>
  <style type="text/css">*{stroke-linejoin: round; stroke-linecap: butt}</style>
 </defs>
 <g id="figure_1">
  <g id="patch_1">
   <path d="M 0 345.6 
L 460.8 345.6 
L 460.8 0 
L 0 0 
z
" style="fill: #ffffff"/>
  </g>
  <g id="axes_1">
   <g id="patch_2">
    <path d="M 57.6 307.584 
L 414.72 307.584 
L 414.72 41.472 
L 57.6 41.472 
z
" style="fill: #ffffff"/>
   </g>
   <g id="matplotlib.axis_1">
    <g id="xtick_1">
     <g id="line2d_1">
      <path d="M 81.562597 307.584 
L 81.562597 41.472 
" clip-path="url(#pe45976cc23)" style="fill: none; stroke: #cccccc; stroke-width: 0.8; stroke-linecap: round"/>
     </g>
     <g id="line2d_2"/>
     <g id="text_1">
      <!-- openjdk-java17 -->
      <g transform="translate(32.138043 364.165622) rotate(-45) scale(0.1 -0.1)">
       <defs>
        <path id="LiberationSans-6f" d="M 3291 1694 
Q 3291 806 2900 371 
Q 2509 -63 1766 -63 
Q 1025 -63 647 389 
Q 269 841 269 1694 
Q 269 3444 1784 3444 
Q 2559 3444 2925 3017 
Q 3291 2591 3291 1694 
z
M 2700 1694 
Q 2700 2394 2492 2711 
Q 2284 3028 1794 3028 
Q 1300 3028 1079 2704 
Q 859 2381 859 1694 
Q 859 1025 1076 689 
Q 1294 353 1759 353 
Q 2266 353 2483 678 
Q 2700 1003 2700 1694 
z
" transform="scale(0.015625)"/>
        <path id="LiberationSans-70" d="M 3291 1706 
Q 3291 -63 2047 -63 
Q 1266 -63 997 525 
L 981 525 
Q 994 500 994 -6 
L 994 -1328 
L 431 -1328 
L 431 2691 
Q 431 3213 413 3381 
L 956 3381 
Q 959 3369 965 3292 
Q 972 3216 980 3056 
Q 988 2897 988 2838 
L 1000 2838 
Q 1150 3150 1397 3295 
Q 1644 3441 2047 3441 
Q 2672 3441 2981 3022 
Q 3291 2603 3291 1706 
z
M 2700 1694 
Q 2700 2400 2509 2703 
Q 2319 3006 1903 3006 
Q 1569 3006 1380 2865 
Q 1191 2725 1092 2426 
Q 994 2128 994 1650 
Q 994 984 1206 668 
Q 1419 353 1897 353 
Q 2316 353 2508 661 
Q 2700 969 2700 1694 
z
" transform="scale(0.015625)"/>
        <path id="LiberationSans-65" d="M 863 1572 
Q 863 991 1103 675 
Q 1344 359 1806 359 
Q 2172 359 2392 506 
Q 2613 653 2691 878 
L 3184 738 
Q 2881 -63 1806 -63 
Q 1056 -63 664 384 
Q 272 831 272 1713 
Q 272 2550 664 2997 
Q 1056 3444 1784 3444 
Q 3275 3444 3275 1647 
L 3275 1572 
L 863 1572 
z
M 2694 2003 
Q 2647 2538 2422 2783 
Q 2197 3028 1775 3028 
Q 1366 3028 1127 2754 
Q 888 2481 869 2003 
L 2694 2003 
z
" transform="scale(0.015625)"/>
        <path id="LiberationSans-6e" d="M 2578 0 
L 2578 2144 
Q 2578 2478 2512 2662 
Q 2447 2847 2303 2928 
Q 2159 3009 1881 3009 
Q 1475 3009 1240 2731 
Q 1006 2453 1006 1959 
L 1006 0 
L 444 0 
L 444 2659 
Q 444 3250 425 3381 
L 956 3381 
Q 959 3366 962 3297 
Q 966 3228 970 3139 
Q 975 3050 981 2803 
L 991 2803 
Q 1184 3153 1439 3298 
Q 1694 3444 2072 3444 
Q 2628 3444 2886 3167 
Q 3144 2891 3144 2253 
L 3144 0 
L 2578 0 
z
" transform="scale(0.015625)"/>
        <path id="LiberationSans-6a" d="M 428 4100 
L 428 4638 
L 991 4638 
L 991 4100 
L 428 4100 
z
M 991 -419 
Q 991 -897 803 -1112 
Q 616 -1328 241 -1328 
Q 0 -1328 -156 -1300 
L -156 -866 
L 38 -884 
Q 253 -884 340 -771 
Q 428 -659 428 -334 
L 428 3381 
L 991 3381 
L 991 -419 
z
" transform="scale(0.015625)"/>
        <path id="LiberationSans-64" d="M 2566 544 
Q 2409 219 2151 78 
Q 1894 -63 1513 -63 
Q 872 -63 570 368 
Q 269 800 269 1675 
Q 269 3444 1513 3444 
Q 1897 3444 2153 3303 
Q 2409 3163 2566 2856 
L 2572 2856 
L 2566 3234 
L 2566 4638 
L 3128 4638 
L 3128 697 
Q 3128 169 3147 0 
L 2609 0 
Q 2600 50 2589 231 
Q 2578 413 2578 544 
L 2566 544 
z
M 859 1694 
Q 859 984 1046 678 
Q 1234 372 1656 372 
Q 2134 372 2350 703 
Q 2566 1034 2566 1731 
Q 2566 2403 2350 2715 
Q 2134 3028 1663 3028 
Q 1238 3028 1048 2714 
Q 859 2400 859 1694 
z
" transform="scale(0.015625)"/>
        <path id="LiberationSans-6b" d="M 2550 0 
L 1406 1544 
L 994 1203 
L 994 0 
L 431 0 
L 431 4638 
L 994 4638 
L 994 1741 
L 2478 3381 
L 3138 3381 
L 1766 1928 
L 3209 0 
L 2550 0 
z
" transform="scale(0.015625)"/>
        <path id="LiberationSans-2d" d="M 284 1450 
L 284 1950 
L 1847 1950 
L 1847 1450 
L 284 1450 
z
" transform="scale(0.015625)"/>
        <path id="LiberationSans-61" d="M 1294 -63 
Q 784 -63 528 206 
Q 272 475 272 944 
Q 272 1469 617 1750 
Q 963 2031 1731 2050 
L 2491 2063 
L 2491 2247 
Q 2491 2659 2316 2837 
Q 2141 3016 1766 3016 
Q 1388 3016 1216 2887 
Q 1044 2759 1009 2478 
L 422 2531 
Q 566 3444 1778 3444 
Q 2416 3444 2737 3151 
Q 3059 2859 3059 2306 
L 3059 850 
Q 3059 600 3125 473 
Q 3191 347 3375 347 
Q 3456 347 3559 369 
L 3559 19 
Q 3347 -31 3125 -31 
Q 2813 -31 2670 133 
Q 2528 297 2509 647 
L 2491 647 
Q 2275 259 1989 98 
Q 1703 -63 1294 -63 
z
M 1422 359 
Q 1731 359 1972 500 
Q 2213 641 2352 886 
Q 2491 1131 2491 1391 
L 2491 1669 
L 1875 1656 
Q 1478 1650 1273 1575 
Q 1069 1500 959 1344 
Q 850 1188 850 934 
Q 850 659 998 509 
Q 1147 359 1422 359 
z
" transform="scale(0.015625)"/>
        <path id="LiberationSans-76" d="M 1916 0 
L 1250 0 
L 22 3381 
L 622 3381 
L 1366 1181 
Q 1406 1056 1581 441 
L 1691 806 
L 1813 1175 
L 2581 3381 
L 3178 3381 
L 1916 0 
z
" transform="scale(0.015625)"/>
        <path id="LiberationSans-31" d="M 488 0 
L 488 478 
L 1609 478 
L 1609 3866 
L 616 3156 
L 616 3688 
L 1656 4403 
L 2175 4403 
L 2175 478 
L 3247 478 
L 3247 0 
L 488 0 
z
" transform="scale(0.015625)"/>
        <path id="LiberationSans-37" d="M 3238 3947 
Q 2563 2916 2284 2331 
Q 2006 1747 1867 1178 
Q 1728 609 1728 0 
L 1141 0 
Q 1141 844 1498 1776 
Q 1856 2709 2694 3925 
L 328 3925 
L 328 4403 
L 3238 4403 
L 3238 3947 
z
" transform="scale(0.015625)"/>
       </defs>
       <use xlink:href="#LiberationSans-6f"/>
       <use xlink:href="#LiberationSans-70" x="55.615234"/>
       <use xlink:href="#LiberationSans-65" x="111.230469"/>
       <use xlink:href="#LiberationSans-6e" x="166.845703"/>
       <use xlink:href="#LiberationSans-6a" x="222.460938"/>
       <use xlink:href="#LiberationSans-64" x="244.677734"/>
       <use xlink:href="#LiberationSans-6b" x="300.292969"/>
       <use xlink:href="#LiberationSans-2d" x="350.292969"/>
       <use xlink:href="#LiberationSans-6a" x="383.59375"/>
       <use xlink:href="#LiberationSans-61" x="405.810547"/>
       <use xlink:href="#LiberationSans-76" x="461.425781"/>
       <use xlink:href="#LiberationSans-61" x="511.425781"/>
       <use xlink:href="#LiberationSans-31" x="567.041016"/>
       <use xlink:href="#LiberationSans-37" x="622.65625"/>
      </g>
     </g>
    </g>
    <g id="xtick_2">
     <g id="line2d_3">
      <path d="M 127.941818 307.584 
L 127.941818 41.472 
" clip-path="url(#pe45976cc23)" style="fill: none; stroke: #cccccc; stroke-width: 0.8; stroke-linecap: round"/>
     </g>
     <g id="line2d_4"/>
     <g id="text_2">
      <!-- openjdk-java19 -->
      <g transform="translate(78.517264 364.165622) rotate(-45) scale(0.1 -0.1)">
       <defs>
        <path id="LiberationSans-39" d="M 3256 2291 
Q 3256 1156 2842 546 
Q 2428 -63 1663 -63 
Q 1147 -63 836 154 
Q 525 372 391 856 
L 928 941 
Q 1097 391 1672 391 
Q 2156 391 2422 841 
Q 2688 1291 2700 2125 
Q 2575 1844 2272 1673 
Q 1969 1503 1606 1503 
Q 1013 1503 656 1909 
Q 300 2316 300 2988 
Q 300 3678 687 4073 
Q 1075 4469 1766 4469 
Q 2500 4469 2878 3925 
Q 3256 3381 3256 2291 
z
M 2644 2834 
Q 2644 3366 2400 3689 
Q 2156 4013 1747 4013 
Q 1341 4013 1106 3736 
Q 872 3459 872 2988 
Q 872 2506 1106 2226 
Q 1341 1947 1741 1947 
Q 1984 1947 2193 2058 
Q 2403 2169 2523 2372 
Q 2644 2575 2644 2834 
z
" transform="scale(0.015625)"/>
       </defs>
       <use xlink:href="#LiberationSans-6f"/>
       <use xlink:href="#LiberationSans-70" x="55.615234"/>
       <use xlink:href="#LiberationSans-65" x="111.230469"/>
       <use xlink:href="#LiberationSans-6e" x="166.845703"/>
       <use xlink:href="#LiberationSans-6a" x="222.460938"/>
       <use xlink:href="#LiberationSans-64" x="244.677734"/>
       <use xlink:href="#LiberationSans-6b" x="300.292969"/>
       <use xlink:href="#LiberationSans-2d" x="350.292969"/>
       <use xlink:href="#LiberationSans-6a" x="383.59375"/>
       <use xlink:href="#LiberationSans-61" x="405.810547"/>
       <use xlink:href="#LiberationSans-76" x="461.425781"/>
       <use xlink:href="#LiberationSans-61" x="511.425781"/>
       <use xlink:href="#LiberationSans-31" x="567.041016"/>
       <use xlink:href="#LiberationSans-39" x="622.65625"/>
      </g>
     </g>
    </g>
    <g id="xtick_3">
     <g id="line2d_5">
      <path d="M 189.780779 307.584 
L 189.780779 41.472 
" clip-path="url(#pe45976cc23)" style="fill: none; stroke: #cccccc; stroke-width: 0.8; stroke-linecap: round"/>
     </g>
     <g id="line2d_6"/>
     <g id="text_3">
      <!-- graalvm-ce-22.3.0-java17 -->
      <g transform="translate(108.141987 396.37986) rotate(-45) scale(0.1 -0.1)">
       <defs>
        <path id="LiberationSans-67" d="M 1713 -1328 
Q 1159 -1328 831 -1111 
Q 503 -894 409 -494 
L 975 -413 
Q 1031 -647 1223 -773 
Q 1416 -900 1728 -900 
Q 2569 -900 2569 84 
L 2569 628 
L 2563 628 
Q 2403 303 2125 139 
Q 1847 -25 1475 -25 
Q 853 -25 561 387 
Q 269 800 269 1684 
Q 269 2581 583 3007 
Q 897 3434 1538 3434 
Q 1897 3434 2161 3270 
Q 2425 3106 2569 2803 
L 2575 2803 
Q 2575 2897 2587 3128 
Q 2600 3359 2613 3381 
L 3147 3381 
Q 3128 3213 3128 2681 
L 3128 97 
Q 3128 -1328 1713 -1328 
z
M 2569 1691 
Q 2569 2103 2456 2401 
Q 2344 2700 2139 2858 
Q 1934 3016 1675 3016 
Q 1244 3016 1047 2703 
Q 850 2391 850 1691 
Q 850 997 1034 694 
Q 1219 391 1666 391 
Q 1931 391 2137 547 
Q 2344 703 2456 995 
Q 2569 1288 2569 1691 
z
" transform="scale(0.015625)"/>
        <path id="LiberationSans-72" d="M 444 0 
L 444 2594 
Q 444 2950 425 3381 
L 956 3381 
Q 981 2806 981 2691 
L 994 2691 
Q 1128 3125 1303 3284 
Q 1478 3444 1797 3444 
Q 1909 3444 2025 3413 
L 2025 2897 
Q 1913 2928 1725 2928 
Q 1375 2928 1190 2626 
Q 1006 2325 1006 1763 
L 1006 0 
L 444 0 
z
" transform="scale(0.015625)"/>
        <path id="LiberationSans-6c" d="M 431 0 
L 431 4638 
L 994 4638 
L 994 0 
L 431 0 
z
" transform="scale(0.015625)"/>
        <path id="LiberationSans-6d" d="M 2400 0 
L 2400 2144 
Q 2400 2634 2265 2821 
Q 2131 3009 1781 3009 
Q 1422 3009 1212 2734 
Q 1003 2459 1003 1959 
L 1003 0 
L 444 0 
L 444 2659 
Q 444 3250 425 3381 
L 956 3381 
Q 959 3366 962 3297 
Q 966 3228 970 3139 
Q 975 3050 981 2803 
L 991 2803 
Q 1172 3163 1406 3303 
Q 1641 3444 1978 3444 
Q 2363 3444 2586 3291 
Q 2809 3138 2897 2803 
L 2906 2803 
Q 3081 3144 3329 3294 
Q 3578 3444 3931 3444 
Q 4444 3444 4676 3166 
Q 4909 2888 4909 2253 
L 4909 0 
L 4353 0 
L 4353 2144 
Q 4353 2634 4218 2821 
Q 4084 3009 3734 3009 
Q 3366 3009 3161 2736 
Q 2956 2463 2956 1959 
L 2956 0 
L 2400 0 
z
" transform="scale(0.015625)"/>
        <path id="LiberationSans-63" d="M 859 1706 
Q 859 1031 1071 706 
Q 1284 381 1713 381 
Q 2013 381 2214 543 
Q 2416 706 2463 1044 
L 3031 1006 
Q 2966 519 2616 228 
Q 2266 -63 1728 -63 
Q 1019 -63 645 385 
Q 272 834 272 1694 
Q 272 2547 647 2995 
Q 1022 3444 1722 3444 
Q 2241 3444 2583 3175 
Q 2925 2906 3013 2434 
L 2434 2391 
Q 2391 2672 2212 2837 
Q 2034 3003 1706 3003 
Q 1259 3003 1059 2706 
Q 859 2409 859 1706 
z
" transform="scale(0.015625)"/>
        <path id="LiberationSans-32" d="M 322 0 
L 322 397 
Q 481 763 711 1042 
Q 941 1322 1194 1548 
Q 1447 1775 1695 1969 
Q 1944 2163 2144 2356 
Q 2344 2550 2467 2762 
Q 2591 2975 2591 3244 
Q 2591 3606 2378 3806 
Q 2166 4006 1788 4006 
Q 1428 4006 1195 3811 
Q 963 3616 922 3263 
L 347 3316 
Q 409 3844 795 4156 
Q 1181 4469 1788 4469 
Q 2453 4469 2811 4155 
Q 3169 3841 3169 3263 
Q 3169 3006 3051 2753 
Q 2934 2500 2703 2247 
Q 2472 1994 1819 1463 
Q 1459 1169 1246 933 
Q 1034 697 941 478 
L 3238 478 
L 3238 0 
L 322 0 
z
" transform="scale(0.015625)"/>
        <path id="LiberationSans-2e" d="M 584 0 
L 584 684 
L 1194 684 
L 1194 0 
L 584 0 
z
" transform="scale(0.015625)"/>
        <path id="LiberationSans-33" d="M 3278 1216 
Q 3278 606 2890 271 
Q 2503 -63 1784 -63 
Q 1116 -63 717 239 
Q 319 541 244 1131 
L 825 1184 
Q 938 403 1784 403 
Q 2209 403 2451 612 
Q 2694 822 2694 1234 
Q 2694 1594 2417 1795 
Q 2141 1997 1619 1997 
L 1300 1997 
L 1300 2484 
L 1606 2484 
Q 2069 2484 2323 2686 
Q 2578 2888 2578 3244 
Q 2578 3597 2370 3801 
Q 2163 4006 1753 4006 
Q 1381 4006 1151 3815 
Q 922 3625 884 3278 
L 319 3322 
Q 381 3863 767 4166 
Q 1153 4469 1759 4469 
Q 2422 4469 2789 4161 
Q 3156 3853 3156 3303 
Q 3156 2881 2920 2617 
Q 2684 2353 2234 2259 
L 2234 2247 
Q 2728 2194 3003 1916 
Q 3278 1638 3278 1216 
z
" transform="scale(0.015625)"/>
        <path id="LiberationSans-30" d="M 3309 2203 
Q 3309 1100 2920 518 
Q 2531 -63 1772 -63 
Q 1013 -63 631 515 
Q 250 1094 250 2203 
Q 250 3338 620 3903 
Q 991 4469 1791 4469 
Q 2569 4469 2939 3897 
Q 3309 3325 3309 2203 
z
M 2738 2203 
Q 2738 3156 2517 3584 
Q 2297 4013 1791 4013 
Q 1272 4013 1045 3591 
Q 819 3169 819 2203 
Q 819 1266 1048 831 
Q 1278 397 1778 397 
Q 2275 397 2506 840 
Q 2738 1284 2738 2203 
z
" transform="scale(0.015625)"/>
       </defs>
       <use xlink:href="#LiberationSans-67"/>
       <use xlink:href="#LiberationSans-72" x="55.615234"/>
       <use xlink:href="#LiberationSans-61" x="88.916016"/>
       <use xlink:href="#LiberationSans-61" x="144.53125"/>
       <use xlink:href="#LiberationSans-6c" x="200.146484"/>
       <use xlink:href="#LiberationSans-76" x="222.363281"/>
       <use xlink:href="#LiberationSans-6d" x="272.363281"/>
       <use xlink:href="#LiberationSans-2d" x="355.664062"/>
       <use xlink:href="#LiberationSans-63" x="388.964844"/>
       <use xlink:href="#LiberationSans-65" x="438.964844"/>
       <use xlink:href="#LiberationSans-2d" x="494.580078"/>
       <use xlink:href="#LiberationSans-32" x="527.880859"/>
       <use xlink:href="#LiberationSans-32" x="583.496094"/>
       <use xlink:href="#LiberationSans-2e" x="639.111328"/>
       <use xlink:href="#LiberationSans-33" x="666.894531"/>
       <use xlink:href="#LiberationSans-2e" x="722.509766"/>
       <use xlink:href="#LiberationSans-30" x="750.292969"/>
       <use xlink:href="#LiberationSans-2d" x="805.908203"/>
       <use xlink:href="#LiberationSans-6a" x="839.208984"/>
       <use xlink:href="#LiberationSans-61" x="861.425781"/>
       <use xlink:href="#LiberationSans-76" x="917.041016"/>
       <use xlink:href="#LiberationSans-61" x="967.041016"/>
       <use xlink:href="#LiberationSans-31" x="1022.65625"/>
       <use xlink:href="#LiberationSans-37" x="1078.271484"/>
      </g>
     </g>
    </g>
    <g id="xtick_4">
     <g id="line2d_7">
      <path d="M 220.70026 307.584 
L 220.70026 41.472 
" clip-path="url(#pe45976cc23)" style="fill: none; stroke: #cccccc; stroke-width: 0.8; stroke-linecap: round"/>
     </g>
     <g id="line2d_8"/>
     <g id="text_4">
      <!-- graalvm-ce-22.3.0-java19 -->
      <g transform="translate(139.061467 396.37986) rotate(-45) scale(0.1 -0.1)">
       <use xlink:href="#LiberationSans-67"/>
       <use xlink:href="#LiberationSans-72" x="55.615234"/>
       <use xlink:href="#LiberationSans-61" x="88.916016"/>
       <use xlink:href="#LiberationSans-61" x="144.53125"/>
       <use xlink:href="#LiberationSans-6c" x="200.146484"/>
       <use xlink:href="#LiberationSans-76" x="222.363281"/>
       <use xlink:href="#LiberationSans-6d" x="272.363281"/>
       <use xlink:href="#LiberationSans-2d" x="355.664062"/>
       <use xlink:href="#LiberationSans-63" x="388.964844"/>
       <use xlink:href="#LiberationSans-65" x="438.964844"/>
       <use xlink:href="#LiberationSans-2d" x="494.580078"/>
       <use xlink:href="#LiberationSans-32" x="527.880859"/>
       <use xlink:href="#LiberationSans-32" x="583.496094"/>
       <use xlink:href="#LiberationSans-2e" x="639.111328"/>
       <use xlink:href="#LiberationSans-33" x="666.894531"/>
       <use xlink:href="#LiberationSans-2e" x="722.509766"/>
       <use xlink:href="#LiberationSans-30" x="750.292969"/>
       <use xlink:href="#LiberationSans-2d" x="805.908203"/>
       <use xlink:href="#LiberationSans-6a" x="839.208984"/>
       <use xlink:href="#LiberationSans-61" x="861.425781"/>
       <use xlink:href="#LiberationSans-76" x="917.041016"/>
       <use xlink:href="#LiberationSans-61" x="967.041016"/>
       <use xlink:href="#LiberationSans-31" x="1022.65625"/>
       <use xlink:href="#LiberationSans-39" x="1078.271484"/>
      </g>
     </g>
    </g>
    <g id="xtick_5">
     <g id="line2d_9">
      <path d="M 282.539221 307.584 
L 282.539221 41.472 
" clip-path="url(#pe45976cc23)" style="fill: none; stroke: #cccccc; stroke-width: 0.8; stroke-linecap: round"/>
     </g>
     <g id="line2d_10"/>
     <g id="text_5">
      <!-- openj9-0.33.0-java17 -->
      <g transform="translate(214.638187 382.642101) rotate(-45) scale(0.1 -0.1)">
       <use xlink:href="#LiberationSans-6f"/>
       <use xlink:href="#LiberationSans-70" x="55.615234"/>
       <use xlink:href="#LiberationSans-65" x="111.230469"/>
       <use xlink:href="#LiberationSans-6e" x="166.845703"/>
       <use xlink:href="#LiberationSans-6a" x="222.460938"/>
       <use xlink:href="#LiberationSans-39" x="244.677734"/>
       <use xlink:href="#LiberationSans-2d" x="300.292969"/>
       <use xlink:href="#LiberationSans-30" x="333.59375"/>
       <use xlink:href="#LiberationSans-2e" x="389.208984"/>
       <use xlink:href="#LiberationSans-33" x="416.992188"/>
       <use xlink:href="#LiberationSans-33" x="472.607422"/>
       <use xlink:href="#LiberationSans-2e" x="528.222656"/>
       <use xlink:href="#LiberationSans-30" x="556.005859"/>
       <use xlink:href="#LiberationSans-2d" x="611.621094"/>
       <use xlink:href="#LiberationSans-6a" x="644.921875"/>
       <use xlink:href="#LiberationSans-61" x="667.138672"/>
       <use xlink:href="#LiberationSans-76" x="722.753906"/>
       <use xlink:href="#LiberationSans-61" x="772.753906"/>
       <use xlink:href="#LiberationSans-31" x="828.369141"/>
       <use xlink:href="#LiberationSans-37" x="883.984375"/>
      </g>
     </g>
    </g>
    <g id="xtick_6">
     <g id="line2d_11">
      <path d="M 344.378182 307.584 
L 344.378182 41.472 
" clip-path="url(#pe45976cc23)" style="fill: none; stroke: #cccccc; stroke-width: 0.8; stroke-linecap: round"/>
     </g>
     <g id="line2d_12"/>
     <g id="text_6">
      <!-- graalvm-native-22.3.0-java17 -->
      <g transform="translate(251.339502 407.779747) rotate(-45) scale(0.1 -0.1)">
       <defs>
        <path id="LiberationSans-74" d="M 1731 25 
Q 1453 -50 1163 -50 
Q 488 -50 488 716 
L 488 2972 
L 97 2972 
L 97 3381 
L 509 3381 
L 675 4138 
L 1050 4138 
L 1050 3381 
L 1675 3381 
L 1675 2972 
L 1050 2972 
L 1050 838 
Q 1050 594 1129 495 
Q 1209 397 1406 397 
Q 1519 397 1731 441 
L 1731 25 
z
" transform="scale(0.015625)"/>
        <path id="LiberationSans-69" d="M 428 4100 
L 428 4638 
L 991 4638 
L 991 4100 
L 428 4100 
z
M 428 0 
L 428 3381 
L 991 3381 
L 991 0 
L 428 0 
z
" transform="scale(0.015625)"/>
       </defs>
       <use xlink:href="#LiberationSans-67"/>
       <use xlink:href="#LiberationSans-72" x="55.615234"/>
       <use xlink:href="#LiberationSans-61" x="88.916016"/>
       <use xlink:href="#LiberationSans-61" x="144.53125"/>
       <use xlink:href="#LiberationSans-6c" x="200.146484"/>
       <use xlink:href="#LiberationSans-76" x="222.363281"/>
       <use xlink:href="#LiberationSans-6d" x="272.363281"/>
       <use xlink:href="#LiberationSans-2d" x="355.664062"/>
       <use xlink:href="#LiberationSans-6e" x="388.964844"/>
       <use xlink:href="#LiberationSans-61" x="444.580078"/>
       <use xlink:href="#LiberationSans-74" x="500.195312"/>
       <use xlink:href="#LiberationSans-69" x="527.978516"/>
       <use xlink:href="#LiberationSans-76" x="550.195312"/>
       <use xlink:href="#LiberationSans-65" x="600.195312"/>
       <use xlink:href="#LiberationSans-2d" x="655.810547"/>
       <use xlink:href="#LiberationSans-32" x="689.111328"/>
       <use xlink:href="#LiberationSans-32" x="744.726562"/>
       <use xlink:href="#LiberationSans-2e" x="800.341797"/>
       <use xlink:href="#LiberationSans-33" x="828.125"/>
       <use xlink:href="#LiberationSans-2e" x="883.740234"/>
       <use xlink:href="#LiberationSans-30" x="911.523438"/>
       <use xlink:href="#LiberationSans-2d" x="967.138672"/>
       <use xlink:href="#LiberationSans-6a" x="1000.439453"/>
       <use xlink:href="#LiberationSans-61" x="1022.65625"/>
       <use xlink:href="#LiberationSans-76" x="1078.271484"/>
       <use xlink:href="#LiberationSans-61" x="1128.271484"/>
       <use xlink:href="#LiberationSans-31" x="1183.886719"/>
       <use xlink:href="#LiberationSans-37" x="1239.501953"/>
      </g>
     </g>
    </g>
    <g id="xtick_7">
     <g id="line2d_13">
      <path d="M 390.757403 307.584 
L 390.757403 41.472 
" clip-path="url(#pe45976cc23)" style="fill: none; stroke: #cccccc; stroke-width: 0.8; stroke-linecap: round"/>
     </g>
     <g id="line2d_14"/>
     <g id="text_7">
      <!-- graalvm-native-22.3.0-java19 -->
      <g transform="translate(297.718723 407.779747) rotate(-45) scale(0.1 -0.1)">
       <use xlink:href="#LiberationSans-67"/>
       <use xlink:href="#LiberationSans-72" x="55.615234"/>
       <use xlink:href="#LiberationSans-61" x="88.916016"/>
       <use xlink:href="#LiberationSans-61" x="144.53125"/>
       <use xlink:href="#LiberationSans-6c" x="200.146484"/>
       <use xlink:href="#LiberationSans-76" x="222.363281"/>
       <use xlink:href="#LiberationSans-6d" x="272.363281"/>
       <use xlink:href="#LiberationSans-2d" x="355.664062"/>
       <use xlink:href="#LiberationSans-6e" x="388.964844"/>
       <use xlink:href="#LiberationSans-61" x="444.580078"/>
       <use xlink:href="#LiberationSans-74" x="500.195312"/>
       <use xlink:href="#LiberationSans-69" x="527.978516"/>
       <use xlink:href="#LiberationSans-76" x="550.195312"/>
       <use xlink:href="#LiberationSans-65" x="600.195312"/>
       <use xlink:href="#LiberationSans-2d" x="655.810547"/>
       <use xlink:href="#LiberationSans-32" x="689.111328"/>
       <use xlink:href="#LiberationSans-32" x="744.726562"/>
       <use xlink:href="#LiberationSans-2e" x="800.341797"/>
       <use xlink:href="#LiberationSans-33" x="828.125"/>
       <use xlink:href="#LiberationSans-2e" x="883.740234"/>
       <use xlink:href="#LiberationSans-30" x="911.523438"/>
       <use xlink:href="#LiberationSans-2d" x="967.138672"/>
       <use xlink:href="#LiberationSans-6a" x="1000.439453"/>
       <use xlink:href="#LiberationSans-61" x="1022.65625"/>
       <use xlink:href="#LiberationSans-76" x="1078.271484"/>
       <use xlink:href="#LiberationSans-61" x="1128.271484"/>
       <use xlink:href="#LiberationSans-31" x="1183.886719"/>
       <use xlink:href="#LiberationSans-39" x="1239.501953"/>
      </g>
     </g>
    </g>
   </g>
   <g id="matplotlib.axis_2">
    <g id="ytick_1">
     <g id="line2d_15">
      <path d="M 57.6 307.584 
L 414.72 307.584 
" clip-path="url(#pe45976cc23)" style="fill: none; stroke: #cccccc; stroke-width: 0.8; stroke-linecap: round"/>
     </g>
     <g id="line2d_16"/>
     <g id="text_8">
      <!-- 0.0 -->
      <g style="fill: #262626" transform="translate(40.2 311.207437) scale(0.1 -0.1)">
       <use xlink:href="#LiberationSans-30"/>
       <use xlink:href="#LiberationSans-2e" x="55.615234"/>
       <use xlink:href="#LiberationSans-30" x="83.398438"/>
      </g>
     </g>
    </g>
    <g id="ytick_2">
     <g id="line2d_17">
      <path d="M 57.6 293.578105 
L 414.72 293.578105 
" clip-path="url(#pe45976cc23)" style="fill: none; stroke: #cccccc; stroke-width: 0.8; stroke-linecap: round"/>
     </g>
     <g id="line2d_18"/>
     <g id="text_9">
      <!-- 0.4 -->
      <g style="fill: #262626" transform="translate(40.2 297.201543) scale(0.1 -0.1)">
       <defs>
        <path id="LiberationSans-34" d="M 2753 997 
L 2753 0 
L 2222 0 
L 2222 997 
L 147 997 
L 147 1434 
L 2163 4403 
L 2753 4403 
L 2753 1441 
L 3372 1441 
L 3372 997 
L 2753 997 
z
M 2222 3769 
Q 2216 3750 2134 3603 
Q 2053 3456 2013 3397 
L 884 1734 
L 716 1503 
L 666 1441 
L 2222 1441 
L 2222 3769 
z
" transform="scale(0.015625)"/>
       </defs>
       <use xlink:href="#LiberationSans-30"/>
       <use xlink:href="#LiberationSans-2e" x="55.615234"/>
       <use xlink:href="#LiberationSans-34" x="83.398438"/>
      </g>
     </g>
    </g>
    <g id="ytick_3">
     <g id="line2d_19">
      <path d="M 57.6 279.572211 
L 414.72 279.572211 
" clip-path="url(#pe45976cc23)" style="fill: none; stroke: #cccccc; stroke-width: 0.8; stroke-linecap: round"/>
     </g>
     <g id="line2d_20"/>
     <g id="text_10">
      <!-- 0.8 -->
      <g style="fill: #262626" transform="translate(40.2 283.195648) scale(0.1 -0.1)">
       <defs>
        <path id="LiberationSans-38" d="M 3281 1228 
Q 3281 619 2893 278 
Q 2506 -63 1781 -63 
Q 1075 -63 676 271 
Q 278 606 278 1222 
Q 278 1653 525 1947 
Q 772 2241 1156 2303 
L 1156 2316 
Q 797 2400 589 2681 
Q 381 2963 381 3341 
Q 381 3844 757 4156 
Q 1134 4469 1769 4469 
Q 2419 4469 2795 4162 
Q 3172 3856 3172 3334 
Q 3172 2956 2962 2675 
Q 2753 2394 2391 2322 
L 2391 2309 
Q 2813 2241 3047 1952 
Q 3281 1663 3281 1228 
z
M 2588 3303 
Q 2588 4050 1769 4050 
Q 1372 4050 1164 3862 
Q 956 3675 956 3303 
Q 956 2925 1170 2726 
Q 1384 2528 1775 2528 
Q 2172 2528 2380 2711 
Q 2588 2894 2588 3303 
z
M 2697 1281 
Q 2697 1691 2453 1898 
Q 2209 2106 1769 2106 
Q 1341 2106 1100 1882 
Q 859 1659 859 1269 
Q 859 359 1788 359 
Q 2247 359 2472 579 
Q 2697 800 2697 1281 
z
" transform="scale(0.015625)"/>
       </defs>
       <use xlink:href="#LiberationSans-30"/>
       <use xlink:href="#LiberationSans-2e" x="55.615234"/>
       <use xlink:href="#LiberationSans-38" x="83.398438"/>
      </g>
     </g>
    </g>
    <g id="ytick_4">
     <g id="line2d_21">
      <path d="M 57.6 265.566316 
L 414.72 265.566316 
" clip-path="url(#pe45976cc23)" style="fill: none; stroke: #cccccc; stroke-width: 0.8; stroke-linecap: round"/>
     </g>
     <g id="line2d_22"/>
     <g id="text_11">
      <!-- 1.2 -->
      <g style="fill: #262626" transform="translate(40.2 269.189753) scale(0.1 -0.1)">
       <use xlink:href="#LiberationSans-31"/>
       <use xlink:href="#LiberationSans-2e" x="55.615234"/>
       <use xlink:href="#LiberationSans-32" x="83.398438"/>
      </g>
     </g>
    </g>
    <g id="ytick_5">
     <g id="line2d_23">
      <path d="M 57.6 251.560421 
L 414.72 251.560421 
" clip-path="url(#pe45976cc23)" style="fill: none; stroke: #cccccc; stroke-width: 0.8; stroke-linecap: round"/>
     </g>
     <g id="line2d_24"/>
     <g id="text_12">
      <!-- 1.6 -->
      <g style="fill: #262626" transform="translate(40.2 255.183859) scale(0.1 -0.1)">
       <defs>
        <path id="LiberationSans-36" d="M 3278 1441 
Q 3278 744 2900 340 
Q 2522 -63 1856 -63 
Q 1113 -63 719 490 
Q 325 1044 325 2100 
Q 325 3244 734 3856 
Q 1144 4469 1900 4469 
Q 2897 4469 3156 3572 
L 2619 3475 
Q 2453 4013 1894 4013 
Q 1413 4013 1148 3564 
Q 884 3116 884 2266 
Q 1038 2550 1316 2698 
Q 1594 2847 1953 2847 
Q 2563 2847 2920 2465 
Q 3278 2084 3278 1441 
z
M 2706 1416 
Q 2706 1894 2472 2153 
Q 2238 2413 1819 2413 
Q 1425 2413 1183 2183 
Q 941 1953 941 1550 
Q 941 1041 1192 716 
Q 1444 391 1838 391 
Q 2244 391 2475 664 
Q 2706 938 2706 1416 
z
" transform="scale(0.015625)"/>
       </defs>
       <use xlink:href="#LiberationSans-31"/>
       <use xlink:href="#LiberationSans-2e" x="55.615234"/>
       <use xlink:href="#LiberationSans-36" x="83.398438"/>
      </g>
     </g>
    </g>
    <g id="ytick_6">
     <g id="line2d_25">
      <path d="M 57.6 237.554526 
L 414.72 237.554526 
" clip-path="url(#pe45976cc23)" style="fill: none; stroke: #cccccc; stroke-width: 0.8; stroke-linecap: round"/>
     </g>
     <g id="line2d_26"/>
     <g id="text_13">
      <!-- 2.0 -->
      <g style="fill: #262626" transform="translate(40.2 241.177964) scale(0.1 -0.1)">
       <use xlink:href="#LiberationSans-32"/>
       <use xlink:href="#LiberationSans-2e" x="55.615234"/>
       <use xlink:href="#LiberationSans-30" x="83.398438"/>
      </g>
     </g>
    </g>
    <g id="ytick_7">
     <g id="line2d_27">
      <path d="M 57.6 223.548632 
L 414.72 223.548632 
" clip-path="url(#pe45976cc23)" style="fill: none; stroke: #cccccc; stroke-width: 0.8; stroke-linecap: round"/>
     </g>
     <g id="line2d_28"/>
     <g id="text_14">
      <!-- 2.4 -->
      <g style="fill: #262626" transform="translate(40.2 227.172069) scale(0.1 -0.1)">
       <use xlink:href="#LiberationSans-32"/>
       <use xlink:href="#LiberationSans-2e" x="55.615234"/>
       <use xlink:href="#LiberationSans-34" x="83.398438"/>
      </g>
     </g>
    </g>
    <g id="ytick_8">
     <g id="line2d_29">
      <path d="M 57.6 209.542737 
L 414.72 209.542737 
" clip-path="url(#pe45976cc23)" style="fill: none; stroke: #cccccc; stroke-width: 0.8; stroke-linecap: round"/>
     </g>
     <g id="line2d_30"/>
     <g id="text_15">
      <!-- 2.8 -->
      <g style="fill: #262626" transform="translate(40.2 213.166174) scale(0.1 -0.1)">
       <use xlink:href="#LiberationSans-32"/>
       <use xlink:href="#LiberationSans-2e" x="55.615234"/>
       <use xlink:href="#LiberationSans-38" x="83.398438"/>
      </g>
     </g>
    </g>
    <g id="ytick_9">
     <g id="line2d_31">
      <path d="M 57.6 195.536842 
L 414.72 195.536842 
" clip-path="url(#pe45976cc23)" style="fill: none; stroke: #cccccc; stroke-width: 0.8; stroke-linecap: round"/>
     </g>
     <g id="line2d_32"/>
     <g id="text_16">
      <!-- 3.2 -->
      <g style="fill: #262626" transform="translate(40.2 199.16028) scale(0.1 -0.1)">
       <use xlink:href="#LiberationSans-33"/>
       <use xlink:href="#LiberationSans-2e" x="55.615234"/>
       <use xlink:href="#LiberationSans-32" x="83.398438"/>
      </g>
     </g>
    </g>
    <g id="ytick_10">
     <g id="line2d_33">
      <path d="M 57.6 181.530947 
L 414.72 181.530947 
" clip-path="url(#pe45976cc23)" style="fill: none; stroke: #cccccc; stroke-width: 0.8; stroke-linecap: round"/>
     </g>
     <g id="line2d_34"/>
     <g id="text_17">
      <!-- 3.6 -->
      <g style="fill: #262626" transform="translate(40.2 185.154385) scale(0.1 -0.1)">
       <use xlink:href="#LiberationSans-33"/>
       <use xlink:href="#LiberationSans-2e" x="55.615234"/>
       <use xlink:href="#LiberationSans-36" x="83.398438"/>
      </g>
     </g>
    </g>
    <g id="ytick_11">
     <g id="line2d_35">
      <path d="M 57.6 167.525053 
L 414.72 167.525053 
" clip-path="url(#pe45976cc23)" style="fill: none; stroke: #cccccc; stroke-width: 0.8; stroke-linecap: round"/>
     </g>
     <g id="line2d_36"/>
     <g id="text_18">
      <!-- 4.0 -->
      <g style="fill: #262626" transform="translate(40.2 171.14849) scale(0.1 -0.1)">
       <use xlink:href="#LiberationSans-34"/>
       <use xlink:href="#LiberationSans-2e" x="55.615234"/>
       <use xlink:href="#LiberationSans-30" x="83.398438"/>
      </g>
     </g>
    </g>
    <g id="ytick_12">
     <g id="line2d_37">
      <path d="M 57.6 153.519158 
L 414.72 153.519158 
" clip-path="url(#pe45976cc23)" style="fill: none; stroke: #cccccc; stroke-width: 0.8; stroke-linecap: round"/>
     </g>
     <g id="line2d_38"/>
     <g id="text_19">
      <!-- 4.4 -->
      <g style="fill: #262626" transform="translate(40.2 157.142595) scale(0.1 -0.1)">
       <use xlink:href="#LiberationSans-34"/>
       <use xlink:href="#LiberationSans-2e" x="55.615234"/>
       <use xlink:href="#LiberationSans-34" x="83.398438"/>
      </g>
     </g>
    </g>
    <g id="ytick_13">
     <g id="line2d_39">
      <path d="M 57.6 139.513263 
L 414.72 139.513263 
" clip-path="url(#pe45976cc23)" style="fill: none; stroke: #cccccc; stroke-width: 0.8; stroke-linecap: round"/>
     </g>
     <g id="line2d_40"/>
     <g id="text_20">
      <!-- 4.8 -->
      <g style="fill: #262626" transform="translate(40.2 143.136701) scale(0.1 -0.1)">
       <use xlink:href="#LiberationSans-34"/>
       <use xlink:href="#LiberationSans-2e" x="55.615234"/>
       <use xlink:href="#LiberationSans-38" x="83.398438"/>
      </g>
     </g>
    </g>
    <g id="ytick_14">
     <g id="line2d_41">
      <path d="M 57.6 125.507368 
L 414.72 125.507368 
" clip-path="url(#pe45976cc23)" style="fill: none; stroke: #cccccc; stroke-width: 0.8; stroke-linecap: round"/>
     </g>
     <g id="line2d_42"/>
     <g id="text_21">
      <!-- 5.2 -->
      <g style="fill: #262626" transform="translate(40.2 129.130806) scale(0.1 -0.1)">
       <defs>
        <path id="LiberationSans-35" d="M 3291 1434 
Q 3291 738 2877 337 
Q 2463 -63 1728 -63 
Q 1113 -63 734 206 
Q 356 475 256 984 
L 825 1050 
Q 1003 397 1741 397 
Q 2194 397 2450 670 
Q 2706 944 2706 1422 
Q 2706 1838 2448 2094 
Q 2191 2350 1753 2350 
Q 1525 2350 1328 2278 
Q 1131 2206 934 2034 
L 384 2034 
L 531 4403 
L 3034 4403 
L 3034 3925 
L 1044 3925 
L 959 2528 
Q 1325 2809 1869 2809 
Q 2519 2809 2905 2428 
Q 3291 2047 3291 1434 
z
" transform="scale(0.015625)"/>
       </defs>
       <use xlink:href="#LiberationSans-35"/>
       <use xlink:href="#LiberationSans-2e" x="55.615234"/>
       <use xlink:href="#LiberationSans-32" x="83.398438"/>
      </g>
     </g>
    </g>
    <g id="ytick_15">
     <g id="line2d_43">
      <path d="M 57.6 111.501474 
L 414.72 111.501474 
" clip-path="url(#pe45976cc23)" style="fill: none; stroke: #cccccc; stroke-width: 0.8; stroke-linecap: round"/>
     </g>
     <g id="line2d_44"/>
     <g id="text_22">
      <!-- 5.6 -->
      <g style="fill: #262626" transform="translate(40.2 115.124911) scale(0.1 -0.1)">
       <use xlink:href="#LiberationSans-35"/>
       <use xlink:href="#LiberationSans-2e" x="55.615234"/>
       <use xlink:href="#LiberationSans-36" x="83.398438"/>
      </g>
     </g>
    </g>
    <g id="ytick_16">
     <g id="line2d_45">
      <path d="M 57.6 97.495579 
L 414.72 97.495579 
" clip-path="url(#pe45976cc23)" style="fill: none; stroke: #cccccc; stroke-width: 0.8; stroke-linecap: round"/>
     </g>
     <g id="line2d_46"/>
     <g id="text_23">
      <!-- 6.0 -->
      <g style="fill: #262626" transform="translate(40.2 101.119016) scale(0.1 -0.1)">
       <use xlink:href="#LiberationSans-36"/>
       <use xlink:href="#LiberationSans-2e" x="55.615234"/>
       <use xlink:href="#LiberationSans-30" x="83.398438"/>
      </g>
     </g>
    </g>
    <g id="ytick_17">
     <g id="line2d_47">
      <path d="M 57.6 83.489684 
L 414.72 83.489684 
" clip-path="url(#pe45976cc23)" style="fill: none; stroke: #cccccc; stroke-width: 0.8; stroke-linecap: round"/>
     </g>
     <g id="line2d_48"/>
     <g id="text_24">
      <!-- 6.4 -->
      <g style="fill: #262626" transform="translate(40.2 87.113122) scale(0.1 -0.1)">
       <use xlink:href="#LiberationSans-36"/>
       <use xlink:href="#LiberationSans-2e" x="55.615234"/>
       <use xlink:href="#LiberationSans-34" x="83.398438"/>
      </g>
     </g>
    </g>
    <g id="ytick_18">
     <g id="line2d_49">
      <path d="M 57.6 69.483789 
L 414.72 69.483789 
" clip-path="url(#pe45976cc23)" style="fill: none; stroke: #cccccc; stroke-width: 0.8; stroke-linecap: round"/>
     </g>
     <g id="line2d_50"/>
     <g id="text_25">
      <!-- 6.8 -->
      <g style="fill: #262626" transform="translate(40.2 73.107227) scale(0.1 -0.1)">
       <use xlink:href="#LiberationSans-36"/>
       <use xlink:href="#LiberationSans-2e" x="55.615234"/>
       <use xlink:href="#LiberationSans-38" x="83.398438"/>
      </g>
     </g>
    </g>
    <g id="ytick_19">
     <g id="line2d_51">
      <path d="M 57.6 55.477895 
L 414.72 55.477895 
" clip-path="url(#pe45976cc23)" style="fill: none; stroke: #cccccc; stroke-width: 0.8; stroke-linecap: round"/>
     </g>
     <g id="line2d_52"/>
     <g id="text_26">
      <!-- 7.2 -->
      <g style="fill: #262626" transform="translate(40.2 59.101332) scale(0.1 -0.1)">
       <use xlink:href="#LiberationSans-37"/>
       <use xlink:href="#LiberationSans-2e" x="55.615234"/>
       <use xlink:href="#LiberationSans-32" x="83.398438"/>
      </g>
     </g>
    </g>
    <g id="ytick_20">
     <g id="line2d_53">
      <path d="M 57.6 41.472 
L 414.72 41.472 
" clip-path="url(#pe45976cc23)" style="fill: none; stroke: #cccccc; stroke-width: 0.8; stroke-linecap: round"/>
     </g>
     <g id="line2d_54"/>
     <g id="text_27">
      <!-- 7.6 -->
      <g style="fill: #262626" transform="translate(40.2 45.095438) scale(0.1 -0.1)">
       <use xlink:href="#LiberationSans-37"/>
       <use xlink:href="#LiberationSans-2e" x="55.615234"/>
       <use xlink:href="#LiberationSans-36" x="83.398438"/>
      </g>
     </g>
    </g>
    <g id="text_28">
     <!-- Startup time (sec) -->
     <g transform="translate(34.125 213.981125) rotate(-90) scale(0.1 -0.1)">
      <defs>
       <path id="LiberationSans-53" d="M 3975 1216 
Q 3975 606 3498 271 
Q 3022 -63 2156 -63 
Q 547 -63 291 1056 
L 869 1172 
Q 969 775 1294 589 
Q 1619 403 2178 403 
Q 2756 403 3070 601 
Q 3384 800 3384 1184 
Q 3384 1400 3286 1534 
Q 3188 1669 3009 1756 
Q 2831 1844 2584 1903 
Q 2338 1963 2038 2031 
Q 1516 2147 1245 2262 
Q 975 2378 819 2520 
Q 663 2663 580 2853 
Q 497 3044 497 3291 
Q 497 3856 930 4162 
Q 1363 4469 2169 4469 
Q 2919 4469 3316 4239 
Q 3713 4009 3872 3456 
L 3284 3353 
Q 3188 3703 2916 3861 
Q 2644 4019 2163 4019 
Q 1634 4019 1356 3844 
Q 1078 3669 1078 3322 
Q 1078 3119 1186 2986 
Q 1294 2853 1497 2761 
Q 1700 2669 2306 2534 
Q 2509 2488 2711 2439 
Q 2913 2391 3097 2323 
Q 3281 2256 3442 2165 
Q 3603 2075 3722 1944 
Q 3841 1813 3908 1634 
Q 3975 1456 3975 1216 
z
" transform="scale(0.015625)"/>
       <path id="LiberationSans-75" d="M 981 3381 
L 981 1238 
Q 981 903 1047 718 
Q 1113 534 1256 453 
Q 1400 372 1678 372 
Q 2084 372 2318 650 
Q 2553 928 2553 1422 
L 2553 3381 
L 3116 3381 
L 3116 722 
Q 3116 131 3134 0 
L 2603 0 
Q 2600 16 2597 84 
Q 2594 153 2589 242 
Q 2584 331 2578 578 
L 2569 578 
Q 2375 228 2120 82 
Q 1866 -63 1488 -63 
Q 931 -63 673 214 
Q 416 491 416 1128 
L 416 3381 
L 981 3381 
z
" transform="scale(0.015625)"/>
       <path id="LiberationSans-20" transform="scale(0.015625)"/>
       <path id="LiberationSans-28" d="M 397 1663 
Q 397 2566 680 3284 
Q 963 4003 1550 4638 
L 2094 4638 
Q 1509 3988 1236 3256 
Q 963 2525 963 1656 
Q 963 791 1233 62 
Q 1503 -666 2094 -1325 
L 1550 -1325 
Q 959 -688 678 32 
Q 397 753 397 1650 
L 397 1663 
z
" transform="scale(0.015625)"/>
       <path id="LiberationSans-73" d="M 2969 934 
Q 2969 456 2608 196 
Q 2247 -63 1597 -63 
Q 966 -63 623 145 
Q 281 353 178 794 
L 675 891 
Q 747 619 972 492 
Q 1197 366 1597 366 
Q 2025 366 2223 497 
Q 2422 628 2422 891 
Q 2422 1091 2284 1216 
Q 2147 1341 1841 1422 
L 1438 1528 
Q 953 1653 748 1773 
Q 544 1894 428 2066 
Q 313 2238 313 2488 
Q 313 2950 642 3192 
Q 972 3434 1603 3434 
Q 2163 3434 2492 3237 
Q 2822 3041 2909 2606 
L 2403 2544 
Q 2356 2769 2151 2889 
Q 1947 3009 1603 3009 
Q 1222 3009 1040 2893 
Q 859 2778 859 2544 
Q 859 2400 934 2306 
Q 1009 2213 1156 2147 
Q 1303 2081 1775 1966 
Q 2222 1853 2419 1758 
Q 2616 1663 2730 1547 
Q 2844 1431 2906 1279 
Q 2969 1128 2969 934 
z
" transform="scale(0.015625)"/>
       <path id="LiberationSans-29" d="M 1734 1650 
Q 1734 747 1451 28 
Q 1169 -691 581 -1325 
L 38 -1325 
Q 625 -669 897 57 
Q 1169 784 1169 1656 
Q 1169 2528 895 3256 
Q 622 3984 38 4638 
L 581 4638 
Q 1172 4000 1453 3279 
Q 1734 2559 1734 1663 
L 1734 1650 
z
" transform="scale(0.015625)"/>
      </defs>
      <use xlink:href="#LiberationSans-53"/>
      <use xlink:href="#LiberationSans-74" x="66.699219"/>
      <use xlink:href="#LiberationSans-61" x="94.482422"/>
      <use xlink:href="#LiberationSans-72" x="150.097656"/>
      <use xlink:href="#LiberationSans-74" x="183.398438"/>
      <use xlink:href="#LiberationSans-75" x="211.181641"/>
      <use xlink:href="#LiberationSans-70" x="266.796875"/>
      <use xlink:href="#LiberationSans-20" x="322.412109"/>
      <use xlink:href="#LiberationSans-74" x="350.195312"/>
      <use xlink:href="#LiberationSans-69" x="377.978516"/>
      <use xlink:href="#LiberationSans-6d" x="400.195312"/>
      <use xlink:href="#LiberationSans-65" x="483.496094"/>
      <use xlink:href="#LiberationSans-20" x="539.111328"/>
      <use xlink:href="#LiberationSans-28" x="566.894531"/>
      <use xlink:href="#LiberationSans-73" x="600.195312"/>
      <use xlink:href="#LiberationSans-65" x="650.195312"/>
      <use xlink:href="#LiberationSans-63" x="705.810547"/>
      <use xlink:href="#LiberationSans-29" x="755.810547"/>
     </g>
    </g>
   </g>
   <g id="patch_3">
    <path d="M 73.832727 307.584 
L 89.292468 307.584 
L 89.292468 143.144291 
L 73.832727 143.144291 
z
" clip-path="url(#pe45976cc23)" style="fill: #2ca02c"/>
   </g>
   <g id="patch_4">
    <path d="M 120.211948 307.584 
L 135.671688 307.584 
L 135.671688 149.905637 
L 120.211948 149.905637 
z
" clip-path="url(#pe45976cc23)" style="fill: #98df8a"/>
   </g>
   <g id="patch_5">
    <path d="M 182.050909 307.584 
L 197.510649 307.584 
L 197.510649 143.932123 
L 182.050909 143.932123 
z
" clip-path="url(#pe45976cc23)" style="fill: #ff7f0e"/>
   </g>
   <g id="patch_6">
    <path d="M 212.97039 307.584 
L 228.43013 307.584 
L 228.43013 140.238068 
L 212.97039 140.238068 
z
" clip-path="url(#pe45976cc23)" style="fill: #ffbb78"/>
   </g>
   <g id="patch_7">
    <path d="M 274.809351 307.584 
L 290.269091 307.584 
L 290.269091 78.899252 
L 274.809351 78.899252 
z
" clip-path="url(#pe45976cc23)" style="fill: #d62728"/>
   </g>
   <g id="patch_8">
    <path d="M 336.648312 307.584 
L 352.108052 307.584 
L 352.108052 277.702424 
L 336.648312 277.702424 
z
" clip-path="url(#pe45976cc23)" style="fill: #1f77b4"/>
   </g>
   <g id="patch_9">
    <path d="M 383.027532 307.584 
L 398.487273 307.584 
L 398.487273 278.868414 
L 383.027532 278.868414 
z
" clip-path="url(#pe45976cc23)" style="fill: #aec7e8"/>
   </g>
   <g id="LineCollection_1">
    <path d="M 81.562597 145.579916 
L 81.562597 140.708666 
" clip-path="url(#pe45976cc23)" style="fill: none; stroke: #000000; stroke-width: 1.5"/>
   </g>
   <g id="line2d_55">
    <defs>
     <path id="mf0aa01f6e1" d="M 4 0 
L -4 -0 
" style="stroke: #000000"/>
    </defs>
    <g clip-path="url(#pe45976cc23)">
     <use xlink:href="#mf0aa01f6e1" x="81.562597" y="145.579916" style="stroke: #000000"/>
    </g>
   </g>
   <g id="line2d_56">
    <g clip-path="url(#pe45976cc23)">
     <use xlink:href="#mf0aa01f6e1" x="81.562597" y="140.708666" style="stroke: #000000"/>
    </g>
   </g>
   <g id="LineCollection_2">
    <path d="M 127.941818 151.855958 
L 127.941818 147.955316 
" clip-path="url(#pe45976cc23)" style="fill: none; stroke: #000000; stroke-width: 1.5"/>
   </g>
   <g id="line2d_57">
    <g clip-path="url(#pe45976cc23)">
     <use xlink:href="#mf0aa01f6e1" x="127.941818" y="151.855958" style="stroke: #000000"/>
    </g>
   </g>
   <g id="line2d_58">
    <g clip-path="url(#pe45976cc23)">
     <use xlink:href="#mf0aa01f6e1" x="127.941818" y="147.955316" style="stroke: #000000"/>
    </g>
   </g>
   <g id="LineCollection_3">
    <path d="M 189.780779 145.763394 
L 189.780779 142.100852 
" clip-path="url(#pe45976cc23)" style="fill: none; stroke: #000000; stroke-width: 1.5"/>
   </g>
   <g id="line2d_59">
    <g clip-path="url(#pe45976cc23)">
     <use xlink:href="#mf0aa01f6e1" x="189.780779" y="145.763394" style="stroke: #000000"/>
    </g>
   </g>
   <g id="line2d_60">
    <g clip-path="url(#pe45976cc23)">
     <use xlink:href="#mf0aa01f6e1" x="189.780779" y="142.100852" style="stroke: #000000"/>
    </g>
   </g>
   <g id="LineCollection_4">
    <path d="M 220.70026 141.309519 
L 220.70026 139.166617 
" clip-path="url(#pe45976cc23)" style="fill: none; stroke: #000000; stroke-width: 1.5"/>
   </g>
   <g id="line2d_61">
    <g clip-path="url(#pe45976cc23)">
     <use xlink:href="#mf0aa01f6e1" x="220.70026" y="141.309519" style="stroke: #000000"/>
    </g>
   </g>
   <g id="line2d_62">
    <g clip-path="url(#pe45976cc23)">
     <use xlink:href="#mf0aa01f6e1" x="220.70026" y="139.166617" style="stroke: #000000"/>
    </g>
   </g>
   <g id="LineCollection_5">
    <path d="M 282.539221 95.521448 
L 282.539221 62.277056 
" clip-path="url(#pe45976cc23)" style="fill: none; stroke: #000000; stroke-width: 1.5"/>
   </g>
   <g id="line2d_63">
    <g clip-path="url(#pe45976cc23)">
     <use xlink:href="#mf0aa01f6e1" x="282.539221" y="95.521448" style="stroke: #000000"/>
    </g>
   </g>
   <g id="line2d_64">
    <g clip-path="url(#pe45976cc23)">
     <use xlink:href="#mf0aa01f6e1" x="282.539221" y="62.277056" style="stroke: #000000"/>
    </g>
   </g>
   <g id="LineCollection_6">
    <path d="M 344.378182 279.465766 
L 344.378182 275.939081 
" clip-path="url(#pe45976cc23)" style="fill: none; stroke: #000000; stroke-width: 1.5"/>
   </g>
   <g id="line2d_65">
    <g clip-path="url(#pe45976cc23)">
     <use xlink:href="#mf0aa01f6e1" x="344.378182" y="279.465766" style="stroke: #000000"/>
    </g>
   </g>
   <g id="line2d_66">
    <g clip-path="url(#pe45976cc23)">
     <use xlink:href="#mf0aa01f6e1" x="344.378182" y="275.939081" style="stroke: #000000"/>
    </g>
   </g>
   <g id="LineCollection_7">
    <path d="M 390.757403 279.677255 
L 390.757403 278.059574 
" clip-path="url(#pe45976cc23)" style="fill: none; stroke: #000000; stroke-width: 1.5"/>
   </g>
   <g id="line2d_67">
    <g clip-path="url(#pe45976cc23)">
     <use xlink:href="#mf0aa01f6e1" x="390.757403" y="279.677255" style="stroke: #000000"/>
    </g>
   </g>
   <g id="line2d_68">
    <g clip-path="url(#pe45976cc23)">
     <use xlink:href="#mf0aa01f6e1" x="390.757403" y="278.059574" style="stroke: #000000"/>
    </g>
   </g>
   <g id="patch_10">
    <path d="M 57.6 307.584 
L 57.6 41.472 
" style="fill: none; stroke: #cccccc; stroke-linejoin: miter; stroke-linecap: square"/>
   </g>
   <g id="patch_11">
    <path d="M 414.72 307.584 
L 414.72 41.472 
" style="fill: none; stroke: #cccccc; stroke-linejoin: miter; stroke-linecap: square"/>
   </g>
   <g id="patch_12">
    <path d="M 57.6 307.584 
L 414.72 307.584 
" style="fill: none; stroke: #cccccc; stroke-linejoin: miter; stroke-linecap: square"/>
   </g>
   <g id="patch_13">
    <path d="M 57.6 41.472 
L 414.72 41.472 
" style="fill: none; stroke: #cccccc; stroke-linejoin: miter; stroke-linecap: square"/>
   </g>
   <g id="text_29">
    <!-- Startup time comparison -->
    <g style="fill: #262626" transform="translate(171.136875 35.472) scale(0.12 -0.12)">
     <use xlink:href="#LiberationSans-53"/>
     <use xlink:href="#LiberationSans-74" x="66.699219"/>
     <use xlink:href="#LiberationSans-61" x="94.482422"/>
     <use xlink:href="#LiberationSans-72" x="150.097656"/>
     <use xlink:href="#LiberationSans-74" x="183.398438"/>
     <use xlink:href="#LiberationSans-75" x="211.181641"/>
     <use xlink:href="#LiberationSans-70" x="266.796875"/>
     <use xlink:href="#LiberationSans-20" x="322.412109"/>
     <use xlink:href="#LiberationSans-74" x="350.195312"/>
     <use xlink:href="#LiberationSans-69" x="377.978516"/>
     <use xlink:href="#LiberationSans-6d" x="400.195312"/>
     <use xlink:href="#LiberationSans-65" x="483.496094"/>
     <use xlink:href="#LiberationSans-20" x="539.111328"/>
     <use xlink:href="#LiberationSans-63" x="566.894531"/>
     <use xlink:href="#LiberationSans-6f" x="616.894531"/>
     <use xlink:href="#LiberationSans-6d" x="672.509766"/>
     <use xlink:href="#LiberationSans-70" x="755.810547"/>
     <use xlink:href="#LiberationSans-61" x="811.425781"/>
     <use xlink:href="#LiberationSans-72" x="867.041016"/>
     <use xlink:href="#LiberationSans-69" x="900.341797"/>
     <use xlink:href="#LiberationSans-73" x="922.558594"/>
     <use xlink:href="#LiberationSans-6f" x="972.558594"/>
     <use xlink:href="#LiberationSans-6e" x="1028.173828"/>
    </g>
   </g>
  </g>
 </g>
 <defs>
  <clipPath id="pe45976cc23">
   <rect x="57.6" y="41.472" width="357.12" height="266.112"/>
  </clipPath>
 </defs>
</svg>
