<?xml version="1.0" encoding="utf-8" standalone="no"?>
<!DOCTYPE svg PUBLIC "-//W3C//DTD SVG 1.1//EN"
  "http://www.w3.org/Graphics/SVG/1.1/DTD/svg11.dtd">
<svg xmlns:xlink="http://www.w3.org/1999/xlink" width="460.8pt" height="345.6pt" viewBox="0 0 460.8 345.6" xmlns="http://www.w3.org/2000/svg" version="1.1">
 <metadata>
  <rdf:RDF xmlns:dc="http://purl.org/dc/elements/1.1/" xmlns:cc="http://creativecommons.org/ns#" xmlns:rdf="http://www.w3.org/1999/02/22-rdf-syntax-ns#">
   <cc:Work>
    <dc:type rdf:resource="http://purl.org/dc/dcmitype/StillImage"/>
    <dc:date>2023-02-06T21:20:02.832220</dc:date>
    <dc:format>image/svg+xml</dc:format>
    <dc:creator>
     <cc:Agent>
      <dc:title>Matplotlib v3.6.2, https://matplotlib.org/</dc:title>
     </cc:Agent>
    </dc:creator>
   </cc:Work>
  </rdf:RDF>
 </metadata>
 <defs>
  <style type="text/css">*{stroke-linejoin: round; stroke-linecap: butt}</style>
 </defs>
 <g id="figure_1">
  <g id="patch_1">
   <path d="M 0 345.6 
L 460.8 345.6 
L 460.8 0 
L 0 0 
z
" style="fill: #ffffff"/>
  </g>
  <g id="axes_1">
   <g id="patch_2">
    <path d="M 57.6 307.584 
L 414.72 307.584 
L 414.72 41.472 
L 57.6 41.472 
z
" style="fill: #ffffff"/>
   </g>
   <g id="matplotlib.axis_1">
    <g id="xtick_1">
     <g id="line2d_1">
      <path d="M 57.6 307.584 
L 57.6 41.472 
" clip-path="url(#p887994323c)" style="fill: none; stroke-dasharray: 2.96,1.28; stroke-dashoffset: 0; stroke: #b0b0b0; stroke-width: 0.8"/>
     </g>
     <g id="line2d_2">
      <defs>
       <path id="md0bf8940a2" d="M 0 0 
L 0 3.5 
" style="stroke: #000000; stroke-width: 0.8"/>
      </defs>
      <g>
       <use xlink:href="#md0bf8940a2" x="57.6" y="307.584" style="stroke: #000000; stroke-width: 0.8"/>
      </g>
     </g>
     <g id="text_1">
      <!-- 00:00:00 -->
      <g transform="translate(24.371506 351.71484) rotate(-45) scale(0.1 -0.1)">
       <defs>
        <path id="DejaVuSans-30" d="M 2034 4250 
Q 1547 4250 1301 3770 
Q 1056 3291 1056 2328 
Q 1056 1369 1301 889 
Q 1547 409 2034 409 
Q 2525 409 2770 889 
Q 3016 1369 3016 2328 
Q 3016 3291 2770 3770 
Q 2525 4250 2034 4250 
z
M 2034 4750 
Q 2819 4750 3233 4129 
Q 3647 3509 3647 2328 
Q 3647 1150 3233 529 
Q 2819 -91 2034 -91 
Q 1250 -91 836 529 
Q 422 1150 422 2328 
Q 422 3509 836 4129 
Q 1250 4750 2034 4750 
z
" transform="scale(0.015625)"/>
        <path id="DejaVuSans-3a" d="M 750 794 
L 1409 794 
L 1409 0 
L 750 0 
L 750 794 
z
M 750 3309 
L 1409 3309 
L 1409 2516 
L 750 2516 
L 750 3309 
z
" transform="scale(0.015625)"/>
       </defs>
       <use xlink:href="#DejaVuSans-30"/>
       <use xlink:href="#DejaVuSans-30" x="63.623047"/>
       <use xlink:href="#DejaVuSans-3a" x="127.246094"/>
       <use xlink:href="#DejaVuSans-30" x="160.9375"/>
       <use xlink:href="#DejaVuSans-30" x="224.560547"/>
       <use xlink:href="#DejaVuSans-3a" x="288.183594"/>
       <use xlink:href="#DejaVuSans-30" x="321.875"/>
       <use xlink:href="#DejaVuSans-30" x="385.498047"/>
      </g>
     </g>
    </g>
    <g id="xtick_2">
     <g id="line2d_3">
      <path d="M 93.312 307.584 
L 93.312 41.472 
" clip-path="url(#p887994323c)" style="fill: none; stroke-dasharray: 2.96,1.28; stroke-dashoffset: 0; stroke: #b0b0b0; stroke-width: 0.8"/>
     </g>
     <g id="line2d_4">
      <g>
       <use xlink:href="#md0bf8940a2" x="93.312" y="307.584" style="stroke: #000000; stroke-width: 0.8"/>
      </g>
     </g>
     <g id="text_2">
      <!-- 00:02:30 -->
      <g transform="translate(60.083506 351.71484) rotate(-45) scale(0.1 -0.1)">
       <defs>
        <path id="DejaVuSans-32" d="M 1228 531 
L 3431 531 
L 3431 0 
L 469 0 
L 469 531 
Q 828 903 1448 1529 
Q 2069 2156 2228 2338 
Q 2531 2678 2651 2914 
Q 2772 3150 2772 3378 
Q 2772 3750 2511 3984 
Q 2250 4219 1831 4219 
Q 1534 4219 1204 4116 
Q 875 4013 500 3803 
L 500 4441 
Q 881 4594 1212 4672 
Q 1544 4750 1819 4750 
Q 2544 4750 2975 4387 
Q 3406 4025 3406 3419 
Q 3406 3131 3298 2873 
Q 3191 2616 2906 2266 
Q 2828 2175 2409 1742 
Q 1991 1309 1228 531 
z
" transform="scale(0.015625)"/>
        <path id="DejaVuSans-33" d="M 2597 2516 
Q 3050 2419 3304 2112 
Q 3559 1806 3559 1356 
Q 3559 666 3084 287 
Q 2609 -91 1734 -91 
Q 1441 -91 1130 -33 
Q 819 25 488 141 
L 488 750 
Q 750 597 1062 519 
Q 1375 441 1716 441 
Q 2309 441 2620 675 
Q 2931 909 2931 1356 
Q 2931 1769 2642 2001 
Q 2353 2234 1838 2234 
L 1294 2234 
L 1294 2753 
L 1863 2753 
Q 2328 2753 2575 2939 
Q 2822 3125 2822 3475 
Q 2822 3834 2567 4026 
Q 2313 4219 1838 4219 
Q 1578 4219 1281 4162 
Q 984 4106 628 3988 
L 628 4550 
Q 988 4650 1302 4700 
Q 1616 4750 1894 4750 
Q 2613 4750 3031 4423 
Q 3450 4097 3450 3541 
Q 3450 3153 3228 2886 
Q 3006 2619 2597 2516 
z
" transform="scale(0.015625)"/>
       </defs>
       <use xlink:href="#DejaVuSans-30"/>
       <use xlink:href="#DejaVuSans-30" x="63.623047"/>
       <use xlink:href="#DejaVuSans-3a" x="127.246094"/>
       <use xlink:href="#DejaVuSans-30" x="160.9375"/>
       <use xlink:href="#DejaVuSans-32" x="224.560547"/>
       <use xlink:href="#DejaVuSans-3a" x="288.183594"/>
       <use xlink:href="#DejaVuSans-33" x="321.875"/>
       <use xlink:href="#DejaVuSans-30" x="385.498047"/>
      </g>
     </g>
    </g>
    <g id="xtick_3">
     <g id="line2d_5">
      <path d="M 129.024 307.584 
L 129.024 41.472 
" clip-path="url(#p887994323c)" style="fill: none; stroke-dasharray: 2.96,1.28; stroke-dashoffset: 0; stroke: #b0b0b0; stroke-width: 0.8"/>
     </g>
     <g id="line2d_6">
      <g>
       <use xlink:href="#md0bf8940a2" x="129.024" y="307.584" style="stroke: #000000; stroke-width: 0.8"/>
      </g>
     </g>
     <g id="text_3">
      <!-- 00:05:00 -->
      <g transform="translate(95.795506 351.71484) rotate(-45) scale(0.1 -0.1)">
       <defs>
        <path id="DejaVuSans-35" d="M 691 4666 
L 3169 4666 
L 3169 4134 
L 1269 4134 
L 1269 2991 
Q 1406 3038 1543 3061 
Q 1681 3084 1819 3084 
Q 2600 3084 3056 2656 
Q 3513 2228 3513 1497 
Q 3513 744 3044 326 
Q 2575 -91 1722 -91 
Q 1428 -91 1123 -41 
Q 819 9 494 109 
L 494 744 
Q 775 591 1075 516 
Q 1375 441 1709 441 
Q 2250 441 2565 725 
Q 2881 1009 2881 1497 
Q 2881 1984 2565 2268 
Q 2250 2553 1709 2553 
Q 1456 2553 1204 2497 
Q 953 2441 691 2322 
L 691 4666 
z
" transform="scale(0.015625)"/>
       </defs>
       <use xlink:href="#DejaVuSans-30"/>
       <use xlink:href="#DejaVuSans-30" x="63.623047"/>
       <use xlink:href="#DejaVuSans-3a" x="127.246094"/>
       <use xlink:href="#DejaVuSans-30" x="160.9375"/>
       <use xlink:href="#DejaVuSans-35" x="224.560547"/>
       <use xlink:href="#DejaVuSans-3a" x="288.183594"/>
       <use xlink:href="#DejaVuSans-30" x="321.875"/>
       <use xlink:href="#DejaVuSans-30" x="385.498047"/>
      </g>
     </g>
    </g>
    <g id="xtick_4">
     <g id="line2d_7">
      <path d="M 164.736 307.584 
L 164.736 41.472 
" clip-path="url(#p887994323c)" style="fill: none; stroke-dasharray: 2.96,1.28; stroke-dashoffset: 0; stroke: #b0b0b0; stroke-width: 0.8"/>
     </g>
     <g id="line2d_8">
      <g>
       <use xlink:href="#md0bf8940a2" x="164.736" y="307.584" style="stroke: #000000; stroke-width: 0.8"/>
      </g>
     </g>
     <g id="text_4">
      <!-- 00:07:30 -->
      <g transform="translate(131.507506 351.71484) rotate(-45) scale(0.1 -0.1)">
       <defs>
        <path id="DejaVuSans-37" d="M 525 4666 
L 3525 4666 
L 3525 4397 
L 1831 0 
L 1172 0 
L 2766 4134 
L 525 4134 
L 525 4666 
z
" transform="scale(0.015625)"/>
       </defs>
       <use xlink:href="#DejaVuSans-30"/>
       <use xlink:href="#DejaVuSans-30" x="63.623047"/>
       <use xlink:href="#DejaVuSans-3a" x="127.246094"/>
       <use xlink:href="#DejaVuSans-30" x="160.9375"/>
       <use xlink:href="#DejaVuSans-37" x="224.560547"/>
       <use xlink:href="#DejaVuSans-3a" x="288.183594"/>
       <use xlink:href="#DejaVuSans-33" x="321.875"/>
       <use xlink:href="#DejaVuSans-30" x="385.498047"/>
      </g>
     </g>
    </g>
    <g id="xtick_5">
     <g id="line2d_9">
      <path d="M 200.448 307.584 
L 200.448 41.472 
" clip-path="url(#p887994323c)" style="fill: none; stroke-dasharray: 2.96,1.28; stroke-dashoffset: 0; stroke: #b0b0b0; stroke-width: 0.8"/>
     </g>
     <g id="line2d_10">
      <g>
       <use xlink:href="#md0bf8940a2" x="200.448" y="307.584" style="stroke: #000000; stroke-width: 0.8"/>
      </g>
     </g>
     <g id="text_5">
      <!-- 00:10:00 -->
      <g transform="translate(167.219506 351.71484) rotate(-45) scale(0.1 -0.1)">
       <defs>
        <path id="DejaVuSans-31" d="M 794 531 
L 1825 531 
L 1825 4091 
L 703 3866 
L 703 4441 
L 1819 4666 
L 2450 4666 
L 2450 531 
L 3481 531 
L 3481 0 
L 794 0 
L 794 531 
z
" transform="scale(0.015625)"/>
       </defs>
       <use xlink:href="#DejaVuSans-30"/>
       <use xlink:href="#DejaVuSans-30" x="63.623047"/>
       <use xlink:href="#DejaVuSans-3a" x="127.246094"/>
       <use xlink:href="#DejaVuSans-31" x="160.9375"/>
       <use xlink:href="#DejaVuSans-30" x="224.560547"/>
       <use xlink:href="#DejaVuSans-3a" x="288.183594"/>
       <use xlink:href="#DejaVuSans-30" x="321.875"/>
       <use xlink:href="#DejaVuSans-30" x="385.498047"/>
      </g>
     </g>
    </g>
    <g id="xtick_6">
     <g id="line2d_11">
      <path d="M 236.16 307.584 
L 236.16 41.472 
" clip-path="url(#p887994323c)" style="fill: none; stroke-dasharray: 2.96,1.28; stroke-dashoffset: 0; stroke: #b0b0b0; stroke-width: 0.8"/>
     </g>
     <g id="line2d_12">
      <g>
       <use xlink:href="#md0bf8940a2" x="236.16" y="307.584" style="stroke: #000000; stroke-width: 0.8"/>
      </g>
     </g>
     <g id="text_6">
      <!-- 00:12:30 -->
      <g transform="translate(202.931506 351.71484) rotate(-45) scale(0.1 -0.1)">
       <use xlink:href="#DejaVuSans-30"/>
       <use xlink:href="#DejaVuSans-30" x="63.623047"/>
       <use xlink:href="#DejaVuSans-3a" x="127.246094"/>
       <use xlink:href="#DejaVuSans-31" x="160.9375"/>
       <use xlink:href="#DejaVuSans-32" x="224.560547"/>
       <use xlink:href="#DejaVuSans-3a" x="288.183594"/>
       <use xlink:href="#DejaVuSans-33" x="321.875"/>
       <use xlink:href="#DejaVuSans-30" x="385.498047"/>
      </g>
     </g>
    </g>
    <g id="xtick_7">
     <g id="line2d_13">
      <path d="M 271.872 307.584 
L 271.872 41.472 
" clip-path="url(#p887994323c)" style="fill: none; stroke-dasharray: 2.96,1.28; stroke-dashoffset: 0; stroke: #b0b0b0; stroke-width: 0.8"/>
     </g>
     <g id="line2d_14">
      <g>
       <use xlink:href="#md0bf8940a2" x="271.872" y="307.584" style="stroke: #000000; stroke-width: 0.8"/>
      </g>
     </g>
     <g id="text_7">
      <!-- 00:15:00 -->
      <g transform="translate(238.643506 351.71484) rotate(-45) scale(0.1 -0.1)">
       <use xlink:href="#DejaVuSans-30"/>
       <use xlink:href="#DejaVuSans-30" x="63.623047"/>
       <use xlink:href="#DejaVuSans-3a" x="127.246094"/>
       <use xlink:href="#DejaVuSans-31" x="160.9375"/>
       <use xlink:href="#DejaVuSans-35" x="224.560547"/>
       <use xlink:href="#DejaVuSans-3a" x="288.183594"/>
       <use xlink:href="#DejaVuSans-30" x="321.875"/>
       <use xlink:href="#DejaVuSans-30" x="385.498047"/>
      </g>
     </g>
    </g>
    <g id="xtick_8">
     <g id="line2d_15">
      <path d="M 307.584 307.584 
L 307.584 41.472 
" clip-path="url(#p887994323c)" style="fill: none; stroke-dasharray: 2.96,1.28; stroke-dashoffset: 0; stroke: #b0b0b0; stroke-width: 0.8"/>
     </g>
     <g id="line2d_16">
      <g>
       <use xlink:href="#md0bf8940a2" x="307.584" y="307.584" style="stroke: #000000; stroke-width: 0.8"/>
      </g>
     </g>
     <g id="text_8">
      <!-- 00:17:30 -->
      <g transform="translate(274.355506 351.71484) rotate(-45) scale(0.1 -0.1)">
       <use xlink:href="#DejaVuSans-30"/>
       <use xlink:href="#DejaVuSans-30" x="63.623047"/>
       <use xlink:href="#DejaVuSans-3a" x="127.246094"/>
       <use xlink:href="#DejaVuSans-31" x="160.9375"/>
       <use xlink:href="#DejaVuSans-37" x="224.560547"/>
       <use xlink:href="#DejaVuSans-3a" x="288.183594"/>
       <use xlink:href="#DejaVuSans-33" x="321.875"/>
       <use xlink:href="#DejaVuSans-30" x="385.498047"/>
      </g>
     </g>
    </g>
    <g id="xtick_9">
     <g id="line2d_17">
      <path d="M 343.296 307.584 
L 343.296 41.472 
" clip-path="url(#p887994323c)" style="fill: none; stroke-dasharray: 2.96,1.28; stroke-dashoffset: 0; stroke: #b0b0b0; stroke-width: 0.8"/>
     </g>
     <g id="line2d_18">
      <g>
       <use xlink:href="#md0bf8940a2" x="343.296" y="307.584" style="stroke: #000000; stroke-width: 0.8"/>
      </g>
     </g>
     <g id="text_9">
      <!-- 00:20:00 -->
      <g transform="translate(310.067506 351.71484) rotate(-45) scale(0.1 -0.1)">
       <use xlink:href="#DejaVuSans-30"/>
       <use xlink:href="#DejaVuSans-30" x="63.623047"/>
       <use xlink:href="#DejaVuSans-3a" x="127.246094"/>
       <use xlink:href="#DejaVuSans-32" x="160.9375"/>
       <use xlink:href="#DejaVuSans-30" x="224.560547"/>
       <use xlink:href="#DejaVuSans-3a" x="288.183594"/>
       <use xlink:href="#DejaVuSans-30" x="321.875"/>
       <use xlink:href="#DejaVuSans-30" x="385.498047"/>
      </g>
     </g>
    </g>
    <g id="xtick_10">
     <g id="line2d_19">
      <path d="M 379.008 307.584 
L 379.008 41.472 
" clip-path="url(#p887994323c)" style="fill: none; stroke-dasharray: 2.96,1.28; stroke-dashoffset: 0; stroke: #b0b0b0; stroke-width: 0.8"/>
     </g>
     <g id="line2d_20">
      <g>
       <use xlink:href="#md0bf8940a2" x="379.008" y="307.584" style="stroke: #000000; stroke-width: 0.8"/>
      </g>
     </g>
     <g id="text_10">
      <!-- 00:22:30 -->
      <g transform="translate(345.779506 351.71484) rotate(-45) scale(0.1 -0.1)">
       <use xlink:href="#DejaVuSans-30"/>
       <use xlink:href="#DejaVuSans-30" x="63.623047"/>
       <use xlink:href="#DejaVuSans-3a" x="127.246094"/>
       <use xlink:href="#DejaVuSans-32" x="160.9375"/>
       <use xlink:href="#DejaVuSans-32" x="224.560547"/>
       <use xlink:href="#DejaVuSans-3a" x="288.183594"/>
       <use xlink:href="#DejaVuSans-33" x="321.875"/>
       <use xlink:href="#DejaVuSans-30" x="385.498047"/>
      </g>
     </g>
    </g>
    <g id="xtick_11">
     <g id="line2d_21">
      <path d="M 414.72 307.584 
L 414.72 41.472 
" clip-path="url(#p887994323c)" style="fill: none; stroke-dasharray: 2.96,1.28; stroke-dashoffset: 0; stroke: #b0b0b0; stroke-width: 0.8"/>
     </g>
     <g id="line2d_22">
      <g>
       <use xlink:href="#md0bf8940a2" x="414.72" y="307.584" style="stroke: #000000; stroke-width: 0.8"/>
      </g>
     </g>
     <g id="text_11">
      <!-- 00:25:00 -->
      <g transform="translate(381.491506 351.71484) rotate(-45) scale(0.1 -0.1)">
       <use xlink:href="#DejaVuSans-30"/>
       <use xlink:href="#DejaVuSans-30" x="63.623047"/>
       <use xlink:href="#DejaVuSans-3a" x="127.246094"/>
       <use xlink:href="#DejaVuSans-32" x="160.9375"/>
       <use xlink:href="#DejaVuSans-35" x="224.560547"/>
       <use xlink:href="#DejaVuSans-3a" x="288.183594"/>
       <use xlink:href="#DejaVuSans-30" x="321.875"/>
       <use xlink:href="#DejaVuSans-30" x="385.498047"/>
      </g>
     </g>
    </g>
    <g id="text_12">
     <!-- Elapsed Time -->
     <g transform="translate(202.695156 364.783839) scale(0.1 -0.1)">
      <defs>
       <path id="DejaVuSans-45" d="M 628 4666 
L 3578 4666 
L 3578 4134 
L 1259 4134 
L 1259 2753 
L 3481 2753 
L 3481 2222 
L 1259 2222 
L 1259 531 
L 3634 531 
L 3634 0 
L 628 0 
L 628 4666 
z
" transform="scale(0.015625)"/>
       <path id="DejaVuSans-6c" d="M 603 4863 
L 1178 4863 
L 1178 0 
L 603 0 
L 603 4863 
z
" transform="scale(0.015625)"/>
       <path id="DejaVuSans-61" d="M 2194 1759 
Q 1497 1759 1228 1600 
Q 959 1441 959 1056 
Q 959 750 1161 570 
Q 1363 391 1709 391 
Q 2188 391 2477 730 
Q 2766 1069 2766 1631 
L 2766 1759 
L 2194 1759 
z
M 3341 1997 
L 3341 0 
L 2766 0 
L 2766 531 
Q 2569 213 2275 61 
Q 1981 -91 1556 -91 
Q 1019 -91 701 211 
Q 384 513 384 1019 
Q 384 1609 779 1909 
Q 1175 2209 1959 2209 
L 2766 2209 
L 2766 2266 
Q 2766 2663 2505 2880 
Q 2244 3097 1772 3097 
Q 1472 3097 1187 3025 
Q 903 2953 641 2809 
L 641 3341 
Q 956 3463 1253 3523 
Q 1550 3584 1831 3584 
Q 2591 3584 2966 3190 
Q 3341 2797 3341 1997 
z
" transform="scale(0.015625)"/>
       <path id="DejaVuSans-70" d="M 1159 525 
L 1159 -1331 
L 581 -1331 
L 581 3500 
L 1159 3500 
L 1159 2969 
Q 1341 3281 1617 3432 
Q 1894 3584 2278 3584 
Q 2916 3584 3314 3078 
Q 3713 2572 3713 1747 
Q 3713 922 3314 415 
Q 2916 -91 2278 -91 
Q 1894 -91 1617 61 
Q 1341 213 1159 525 
z
M 3116 1747 
Q 3116 2381 2855 2742 
Q 2594 3103 2138 3103 
Q 1681 3103 1420 2742 
Q 1159 2381 1159 1747 
Q 1159 1113 1420 752 
Q 1681 391 2138 391 
Q 2594 391 2855 752 
Q 3116 1113 3116 1747 
z
" transform="scale(0.015625)"/>
       <path id="DejaVuSans-73" d="M 2834 3397 
L 2834 2853 
Q 2591 2978 2328 3040 
Q 2066 3103 1784 3103 
Q 1356 3103 1142 2972 
Q 928 2841 928 2578 
Q 928 2378 1081 2264 
Q 1234 2150 1697 2047 
L 1894 2003 
Q 2506 1872 2764 1633 
Q 3022 1394 3022 966 
Q 3022 478 2636 193 
Q 2250 -91 1575 -91 
Q 1294 -91 989 -36 
Q 684 19 347 128 
L 347 722 
Q 666 556 975 473 
Q 1284 391 1588 391 
Q 1994 391 2212 530 
Q 2431 669 2431 922 
Q 2431 1156 2273 1281 
Q 2116 1406 1581 1522 
L 1381 1569 
Q 847 1681 609 1914 
Q 372 2147 372 2553 
Q 372 3047 722 3315 
Q 1072 3584 1716 3584 
Q 2034 3584 2315 3537 
Q 2597 3491 2834 3397 
z
" transform="scale(0.015625)"/>
       <path id="DejaVuSans-65" d="M 3597 1894 
L 3597 1613 
L 953 1613 
Q 991 1019 1311 708 
Q 1631 397 2203 397 
Q 2534 397 2845 478 
Q 3156 559 3463 722 
L 3463 178 
Q 3153 47 2828 -22 
Q 2503 -91 2169 -91 
Q 1331 -91 842 396 
Q 353 884 353 1716 
Q 353 2575 817 3079 
Q 1281 3584 2069 3584 
Q 2775 3584 3186 3129 
Q 3597 2675 3597 1894 
z
M 3022 2063 
Q 3016 2534 2758 2815 
Q 2500 3097 2075 3097 
Q 1594 3097 1305 2825 
Q 1016 2553 972 2059 
L 3022 2063 
z
" transform="scale(0.015625)"/>
       <path id="DejaVuSans-64" d="M 2906 2969 
L 2906 4863 
L 3481 4863 
L 3481 0 
L 2906 0 
L 2906 525 
Q 2725 213 2448 61 
Q 2172 -91 1784 -91 
Q 1150 -91 751 415 
Q 353 922 353 1747 
Q 353 2572 751 3078 
Q 1150 3584 1784 3584 
Q 2172 3584 2448 3432 
Q 2725 3281 2906 2969 
z
M 947 1747 
Q 947 1113 1208 752 
Q 1469 391 1925 391 
Q 2381 391 2643 752 
Q 2906 1113 2906 1747 
Q 2906 2381 2643 2742 
Q 2381 3103 1925 3103 
Q 1469 3103 1208 2742 
Q 947 2381 947 1747 
z
" transform="scale(0.015625)"/>
       <path id="DejaVuSans-20" transform="scale(0.015625)"/>
       <path id="DejaVuSans-54" d="M -19 4666 
L 3928 4666 
L 3928 4134 
L 2272 4134 
L 2272 0 
L 1638 0 
L 1638 4134 
L -19 4134 
L -19 4666 
z
" transform="scale(0.015625)"/>
       <path id="DejaVuSans-69" d="M 603 3500 
L 1178 3500 
L 1178 0 
L 603 0 
L 603 3500 
z
M 603 4863 
L 1178 4863 
L 1178 4134 
L 603 4134 
L 603 4863 
z
" transform="scale(0.015625)"/>
       <path id="DejaVuSans-6d" d="M 3328 2828 
Q 3544 3216 3844 3400 
Q 4144 3584 4550 3584 
Q 5097 3584 5394 3201 
Q 5691 2819 5691 2113 
L 5691 0 
L 5113 0 
L 5113 2094 
Q 5113 2597 4934 2840 
Q 4756 3084 4391 3084 
Q 3944 3084 3684 2787 
Q 3425 2491 3425 1978 
L 3425 0 
L 2847 0 
L 2847 2094 
Q 2847 2600 2669 2842 
Q 2491 3084 2119 3084 
Q 1678 3084 1418 2786 
Q 1159 2488 1159 1978 
L 1159 0 
L 581 0 
L 581 3500 
L 1159 3500 
L 1159 2956 
Q 1356 3278 1631 3431 
Q 1906 3584 2284 3584 
Q 2666 3584 2933 3390 
Q 3200 3197 3328 2828 
z
" transform="scale(0.015625)"/>
      </defs>
      <use xlink:href="#DejaVuSans-45"/>
      <use xlink:href="#DejaVuSans-6c" x="63.183594"/>
      <use xlink:href="#DejaVuSans-61" x="90.966797"/>
      <use xlink:href="#DejaVuSans-70" x="152.246094"/>
      <use xlink:href="#DejaVuSans-73" x="215.722656"/>
      <use xlink:href="#DejaVuSans-65" x="267.822266"/>
      <use xlink:href="#DejaVuSans-64" x="329.345703"/>
      <use xlink:href="#DejaVuSans-20" x="392.822266"/>
      <use xlink:href="#DejaVuSans-54" x="424.609375"/>
      <use xlink:href="#DejaVuSans-69" x="482.568359"/>
      <use xlink:href="#DejaVuSans-6d" x="510.351562"/>
      <use xlink:href="#DejaVuSans-65" x="607.763672"/>
     </g>
    </g>
   </g>
   <g id="matplotlib.axis_2">
    <g id="ytick_1">
     <g id="line2d_23">
      <path d="M 57.6 307.584 
L 414.72 307.584 
" clip-path="url(#p887994323c)" style="fill: none; stroke-dasharray: 2.96,1.28; stroke-dashoffset: 0; stroke: #b0b0b0; stroke-width: 0.8"/>
     </g>
     <g id="line2d_24">
      <defs>
       <path id="m006f8370b1" d="M 0 0 
L -3.5 0 
" style="stroke: #000000; stroke-width: 0.8"/>
      </defs>
      <g>
       <use xlink:href="#m006f8370b1" x="57.6" y="307.584" style="stroke: #000000; stroke-width: 0.8"/>
      </g>
     </g>
     <g id="text_13">
      <!-- 0 GiB -->
      <g transform="translate(23.671875 311.383219) scale(0.1 -0.1)">
       <defs>
        <path id="DejaVuSans-47" d="M 3809 666 
L 3809 1919 
L 2778 1919 
L 2778 2438 
L 4434 2438 
L 4434 434 
Q 4069 175 3628 42 
Q 3188 -91 2688 -91 
Q 1594 -91 976 548 
Q 359 1188 359 2328 
Q 359 3472 976 4111 
Q 1594 4750 2688 4750 
Q 3144 4750 3555 4637 
Q 3966 4525 4313 4306 
L 4313 3634 
Q 3963 3931 3569 4081 
Q 3175 4231 2741 4231 
Q 1884 4231 1454 3753 
Q 1025 3275 1025 2328 
Q 1025 1384 1454 906 
Q 1884 428 2741 428 
Q 3075 428 3337 486 
Q 3600 544 3809 666 
z
" transform="scale(0.015625)"/>
        <path id="DejaVuSans-42" d="M 1259 2228 
L 1259 519 
L 2272 519 
Q 2781 519 3026 730 
Q 3272 941 3272 1375 
Q 3272 1813 3026 2020 
Q 2781 2228 2272 2228 
L 1259 2228 
z
M 1259 4147 
L 1259 2741 
L 2194 2741 
Q 2656 2741 2882 2914 
Q 3109 3088 3109 3444 
Q 3109 3797 2882 3972 
Q 2656 4147 2194 4147 
L 1259 4147 
z
M 628 4666 
L 2241 4666 
Q 2963 4666 3353 4366 
Q 3744 4066 3744 3513 
Q 3744 3084 3544 2831 
Q 3344 2578 2956 2516 
Q 3422 2416 3680 2098 
Q 3938 1781 3938 1306 
Q 3938 681 3513 340 
Q 3088 0 2303 0 
L 628 0 
L 628 4666 
z
" transform="scale(0.015625)"/>
       </defs>
       <use xlink:href="#DejaVuSans-30"/>
       <use xlink:href="#DejaVuSans-20" x="63.623047"/>
       <use xlink:href="#DejaVuSans-47" x="95.410156"/>
       <use xlink:href="#DejaVuSans-69" x="172.900391"/>
       <use xlink:href="#DejaVuSans-42" x="200.683594"/>
      </g>
     </g>
    </g>
    <g id="ytick_2">
     <g id="line2d_25">
      <path d="M 57.6 280.9728 
L 414.72 280.9728 
" clip-path="url(#p887994323c)" style="fill: none; stroke-dasharray: 2.96,1.28; stroke-dashoffset: 0; stroke: #b0b0b0; stroke-width: 0.8"/>
     </g>
     <g id="line2d_26">
      <g>
       <use xlink:href="#m006f8370b1" x="57.6" y="280.9728" style="stroke: #000000; stroke-width: 0.8"/>
      </g>
     </g>
     <g id="text_14">
      <!-- 2.5 GiB -->
      <g transform="translate(14.13125 284.772019) scale(0.1 -0.1)">
       <defs>
        <path id="DejaVuSans-2e" d="M 684 794 
L 1344 794 
L 1344 0 
L 684 0 
L 684 794 
z
" transform="scale(0.015625)"/>
       </defs>
       <use xlink:href="#DejaVuSans-32"/>
       <use xlink:href="#DejaVuSans-2e" x="63.623047"/>
       <use xlink:href="#DejaVuSans-35" x="95.410156"/>
       <use xlink:href="#DejaVuSans-20" x="159.033203"/>
       <use xlink:href="#DejaVuSans-47" x="190.820312"/>
       <use xlink:href="#DejaVuSans-69" x="268.310547"/>
       <use xlink:href="#DejaVuSans-42" x="296.09375"/>
      </g>
     </g>
    </g>
    <g id="ytick_3">
     <g id="line2d_27">
      <path d="M 57.6 254.3616 
L 414.72 254.3616 
" clip-path="url(#p887994323c)" style="fill: none; stroke-dasharray: 2.96,1.28; stroke-dashoffset: 0; stroke: #b0b0b0; stroke-width: 0.8"/>
     </g>
     <g id="line2d_28">
      <g>
       <use xlink:href="#m006f8370b1" x="57.6" y="254.3616" style="stroke: #000000; stroke-width: 0.8"/>
      </g>
     </g>
     <g id="text_15">
      <!-- 5 GiB -->
      <g transform="translate(23.671875 258.160819) scale(0.1 -0.1)">
       <use xlink:href="#DejaVuSans-35"/>
       <use xlink:href="#DejaVuSans-20" x="63.623047"/>
       <use xlink:href="#DejaVuSans-47" x="95.410156"/>
       <use xlink:href="#DejaVuSans-69" x="172.900391"/>
       <use xlink:href="#DejaVuSans-42" x="200.683594"/>
      </g>
     </g>
    </g>
    <g id="ytick_4">
     <g id="line2d_29">
      <path d="M 57.6 227.7504 
L 414.72 227.7504 
" clip-path="url(#p887994323c)" style="fill: none; stroke-dasharray: 2.96,1.28; stroke-dashoffset: 0; stroke: #b0b0b0; stroke-width: 0.8"/>
     </g>
     <g id="line2d_30">
      <g>
       <use xlink:href="#m006f8370b1" x="57.6" y="227.7504" style="stroke: #000000; stroke-width: 0.8"/>
      </g>
     </g>
     <g id="text_16">
      <!-- 7.5 GiB -->
      <g transform="translate(14.13125 231.549619) scale(0.1 -0.1)">
       <use xlink:href="#DejaVuSans-37"/>
       <use xlink:href="#DejaVuSans-2e" x="63.623047"/>
       <use xlink:href="#DejaVuSans-35" x="95.410156"/>
       <use xlink:href="#DejaVuSans-20" x="159.033203"/>
       <use xlink:href="#DejaVuSans-47" x="190.820312"/>
       <use xlink:href="#DejaVuSans-69" x="268.310547"/>
       <use xlink:href="#DejaVuSans-42" x="296.09375"/>
      </g>
     </g>
    </g>
    <g id="ytick_5">
     <g id="line2d_31">
      <path d="M 57.6 201.1392 
L 414.72 201.1392 
" clip-path="url(#p887994323c)" style="fill: none; stroke-dasharray: 2.96,1.28; stroke-dashoffset: 0; stroke: #b0b0b0; stroke-width: 0.8"/>
     </g>
     <g id="line2d_32">
      <g>
       <use xlink:href="#m006f8370b1" x="57.6" y="201.1392" style="stroke: #000000; stroke-width: 0.8"/>
      </g>
     </g>
     <g id="text_17">
      <!-- 10 GiB -->
      <g transform="translate(17.309375 204.938419) scale(0.1 -0.1)">
       <use xlink:href="#DejaVuSans-31"/>
       <use xlink:href="#DejaVuSans-30" x="63.623047"/>
       <use xlink:href="#DejaVuSans-20" x="127.246094"/>
       <use xlink:href="#DejaVuSans-47" x="159.033203"/>
       <use xlink:href="#DejaVuSans-69" x="236.523438"/>
       <use xlink:href="#DejaVuSans-42" x="264.306641"/>
      </g>
     </g>
    </g>
    <g id="ytick_6">
     <g id="line2d_33">
      <path d="M 57.6 174.528 
L 414.72 174.528 
" clip-path="url(#p887994323c)" style="fill: none; stroke-dasharray: 2.96,1.28; stroke-dashoffset: 0; stroke: #b0b0b0; stroke-width: 0.8"/>
     </g>
     <g id="line2d_34">
      <g>
       <use xlink:href="#m006f8370b1" x="57.6" y="174.528" style="stroke: #000000; stroke-width: 0.8"/>
      </g>
     </g>
     <g id="text_18">
      <!-- 12.5 GiB -->
      <g transform="translate(7.76875 178.327219) scale(0.1 -0.1)">
       <use xlink:href="#DejaVuSans-31"/>
       <use xlink:href="#DejaVuSans-32" x="63.623047"/>
       <use xlink:href="#DejaVuSans-2e" x="127.246094"/>
       <use xlink:href="#DejaVuSans-35" x="159.033203"/>
       <use xlink:href="#DejaVuSans-20" x="222.65625"/>
       <use xlink:href="#DejaVuSans-47" x="254.443359"/>
       <use xlink:href="#DejaVuSans-69" x="331.933594"/>
       <use xlink:href="#DejaVuSans-42" x="359.716797"/>
      </g>
     </g>
    </g>
    <g id="ytick_7">
     <g id="line2d_35">
      <path d="M 57.6 147.9168 
L 414.72 147.9168 
" clip-path="url(#p887994323c)" style="fill: none; stroke-dasharray: 2.96,1.28; stroke-dashoffset: 0; stroke: #b0b0b0; stroke-width: 0.8"/>
     </g>
     <g id="line2d_36">
      <g>
       <use xlink:href="#m006f8370b1" x="57.6" y="147.9168" style="stroke: #000000; stroke-width: 0.8"/>
      </g>
     </g>
     <g id="text_19">
      <!-- 15 GiB -->
      <g transform="translate(17.309375 151.716019) scale(0.1 -0.1)">
       <use xlink:href="#DejaVuSans-31"/>
       <use xlink:href="#DejaVuSans-35" x="63.623047"/>
       <use xlink:href="#DejaVuSans-20" x="127.246094"/>
       <use xlink:href="#DejaVuSans-47" x="159.033203"/>
       <use xlink:href="#DejaVuSans-69" x="236.523438"/>
       <use xlink:href="#DejaVuSans-42" x="264.306641"/>
      </g>
     </g>
    </g>
    <g id="ytick_8">
     <g id="line2d_37">
      <path d="M 57.6 121.3056 
L 414.72 121.3056 
" clip-path="url(#p887994323c)" style="fill: none; stroke-dasharray: 2.96,1.28; stroke-dashoffset: 0; stroke: #b0b0b0; stroke-width: 0.8"/>
     </g>
     <g id="line2d_38">
      <g>
       <use xlink:href="#m006f8370b1" x="57.6" y="121.3056" style="stroke: #000000; stroke-width: 0.8"/>
      </g>
     </g>
     <g id="text_20">
      <!-- 17.5 GiB -->
      <g transform="translate(7.76875 125.104819) scale(0.1 -0.1)">
       <use xlink:href="#DejaVuSans-31"/>
       <use xlink:href="#DejaVuSans-37" x="63.623047"/>
       <use xlink:href="#DejaVuSans-2e" x="127.246094"/>
       <use xlink:href="#DejaVuSans-35" x="159.033203"/>
       <use xlink:href="#DejaVuSans-20" x="222.65625"/>
       <use xlink:href="#DejaVuSans-47" x="254.443359"/>
       <use xlink:href="#DejaVuSans-69" x="331.933594"/>
       <use xlink:href="#DejaVuSans-42" x="359.716797"/>
      </g>
     </g>
    </g>
    <g id="ytick_9">
     <g id="line2d_39">
      <path d="M 57.6 94.6944 
L 414.72 94.6944 
" clip-path="url(#p887994323c)" style="fill: none; stroke-dasharray: 2.96,1.28; stroke-dashoffset: 0; stroke: #b0b0b0; stroke-width: 0.8"/>
     </g>
     <g id="line2d_40">
      <g>
       <use xlink:href="#m006f8370b1" x="57.6" y="94.6944" style="stroke: #000000; stroke-width: 0.8"/>
      </g>
     </g>
     <g id="text_21">
      <!-- 20 GiB -->
      <g transform="translate(17.309375 98.493619) scale(0.1 -0.1)">
       <use xlink:href="#DejaVuSans-32"/>
       <use xlink:href="#DejaVuSans-30" x="63.623047"/>
       <use xlink:href="#DejaVuSans-20" x="127.246094"/>
       <use xlink:href="#DejaVuSans-47" x="159.033203"/>
       <use xlink:href="#DejaVuSans-69" x="236.523438"/>
       <use xlink:href="#DejaVuSans-42" x="264.306641"/>
      </g>
     </g>
    </g>
    <g id="ytick_10">
     <g id="line2d_41">
      <path d="M 57.6 68.0832 
L 414.72 68.0832 
" clip-path="url(#p887994323c)" style="fill: none; stroke-dasharray: 2.96,1.28; stroke-dashoffset: 0; stroke: #b0b0b0; stroke-width: 0.8"/>
     </g>
     <g id="line2d_42">
      <g>
       <use xlink:href="#m006f8370b1" x="57.6" y="68.0832" style="stroke: #000000; stroke-width: 0.8"/>
      </g>
     </g>
     <g id="text_22">
      <!-- 22.5 GiB -->
      <g transform="translate(7.76875 71.882419) scale(0.1 -0.1)">
       <use xlink:href="#DejaVuSans-32"/>
       <use xlink:href="#DejaVuSans-32" x="63.623047"/>
       <use xlink:href="#DejaVuSans-2e" x="127.246094"/>
       <use xlink:href="#DejaVuSans-35" x="159.033203"/>
       <use xlink:href="#DejaVuSans-20" x="222.65625"/>
       <use xlink:href="#DejaVuSans-47" x="254.443359"/>
       <use xlink:href="#DejaVuSans-69" x="331.933594"/>
       <use xlink:href="#DejaVuSans-42" x="359.716797"/>
      </g>
     </g>
    </g>
    <g id="ytick_11">
     <g id="line2d_43">
      <path d="M 57.6 41.472 
L 414.72 41.472 
" clip-path="url(#p887994323c)" style="fill: none; stroke-dasharray: 2.96,1.28; stroke-dashoffset: 0; stroke: #b0b0b0; stroke-width: 0.8"/>
     </g>
     <g id="line2d_44">
      <g>
       <use xlink:href="#m006f8370b1" x="57.6" y="41.472" style="stroke: #000000; stroke-width: 0.8"/>
      </g>
     </g>
     <g id="text_23">
      <!-- 25 GiB -->
      <g transform="translate(17.309375 45.271219) scale(0.1 -0.1)">
       <use xlink:href="#DejaVuSans-32"/>
       <use xlink:href="#DejaVuSans-35" x="63.623047"/>
       <use xlink:href="#DejaVuSans-20" x="127.246094"/>
       <use xlink:href="#DejaVuSans-47" x="159.033203"/>
       <use xlink:href="#DejaVuSans-69" x="236.523438"/>
       <use xlink:href="#DejaVuSans-42" x="264.306641"/>
      </g>
     </g>
    </g>
    <g id="text_24">
     <!-- Memory Usage -->
     <g transform="translate(1.689062 212.031125) rotate(-90) scale(0.1 -0.1)">
      <defs>
       <path id="DejaVuSans-4d" d="M 628 4666 
L 1569 4666 
L 2759 1491 
L 3956 4666 
L 4897 4666 
L 4897 0 
L 4281 0 
L 4281 4097 
L 3078 897 
L 2444 897 
L 1241 4097 
L 1241 0 
L 628 0 
L 628 4666 
z
" transform="scale(0.015625)"/>
       <path id="DejaVuSans-6f" d="M 1959 3097 
Q 1497 3097 1228 2736 
Q 959 2375 959 1747 
Q 959 1119 1226 758 
Q 1494 397 1959 397 
Q 2419 397 2687 759 
Q 2956 1122 2956 1747 
Q 2956 2369 2687 2733 
Q 2419 3097 1959 3097 
z
M 1959 3584 
Q 2709 3584 3137 3096 
Q 3566 2609 3566 1747 
Q 3566 888 3137 398 
Q 2709 -91 1959 -91 
Q 1206 -91 779 398 
Q 353 888 353 1747 
Q 353 2609 779 3096 
Q 1206 3584 1959 3584 
z
" transform="scale(0.015625)"/>
       <path id="DejaVuSans-72" d="M 2631 2963 
Q 2534 3019 2420 3045 
Q 2306 3072 2169 3072 
Q 1681 3072 1420 2755 
Q 1159 2438 1159 1844 
L 1159 0 
L 581 0 
L 581 3500 
L 1159 3500 
L 1159 2956 
Q 1341 3275 1631 3429 
Q 1922 3584 2338 3584 
Q 2397 3584 2469 3576 
Q 2541 3569 2628 3553 
L 2631 2963 
z
" transform="scale(0.015625)"/>
       <path id="DejaVuSans-79" d="M 2059 -325 
Q 1816 -950 1584 -1140 
Q 1353 -1331 966 -1331 
L 506 -1331 
L 506 -850 
L 844 -850 
Q 1081 -850 1212 -737 
Q 1344 -625 1503 -206 
L 1606 56 
L 191 3500 
L 800 3500 
L 1894 763 
L 2988 3500 
L 3597 3500 
L 2059 -325 
z
" transform="scale(0.015625)"/>
       <path id="DejaVuSans-55" d="M 556 4666 
L 1191 4666 
L 1191 1831 
Q 1191 1081 1462 751 
Q 1734 422 2344 422 
Q 2950 422 3222 751 
Q 3494 1081 3494 1831 
L 3494 4666 
L 4128 4666 
L 4128 1753 
Q 4128 841 3676 375 
Q 3225 -91 2344 -91 
Q 1459 -91 1007 375 
Q 556 841 556 1753 
L 556 4666 
z
" transform="scale(0.015625)"/>
       <path id="DejaVuSans-67" d="M 2906 1791 
Q 2906 2416 2648 2759 
Q 2391 3103 1925 3103 
Q 1463 3103 1205 2759 
Q 947 2416 947 1791 
Q 947 1169 1205 825 
Q 1463 481 1925 481 
Q 2391 481 2648 825 
Q 2906 1169 2906 1791 
z
M 3481 434 
Q 3481 -459 3084 -895 
Q 2688 -1331 1869 -1331 
Q 1566 -1331 1297 -1286 
Q 1028 -1241 775 -1147 
L 775 -588 
Q 1028 -725 1275 -790 
Q 1522 -856 1778 -856 
Q 2344 -856 2625 -561 
Q 2906 -266 2906 331 
L 2906 616 
Q 2728 306 2450 153 
Q 2172 0 1784 0 
Q 1141 0 747 490 
Q 353 981 353 1791 
Q 353 2603 747 3093 
Q 1141 3584 1784 3584 
Q 2172 3584 2450 3431 
Q 2728 3278 2906 2969 
L 2906 3500 
L 3481 3500 
L 3481 434 
z
" transform="scale(0.015625)"/>
      </defs>
      <use xlink:href="#DejaVuSans-4d"/>
      <use xlink:href="#DejaVuSans-65" x="86.279297"/>
      <use xlink:href="#DejaVuSans-6d" x="147.802734"/>
      <use xlink:href="#DejaVuSans-6f" x="245.214844"/>
      <use xlink:href="#DejaVuSans-72" x="306.396484"/>
      <use xlink:href="#DejaVuSans-79" x="347.509766"/>
      <use xlink:href="#DejaVuSans-20" x="406.689453"/>
      <use xlink:href="#DejaVuSans-55" x="438.476562"/>
      <use xlink:href="#DejaVuSans-73" x="511.669922"/>
      <use xlink:href="#DejaVuSans-61" x="563.769531"/>
      <use xlink:href="#DejaVuSans-67" x="625.048828"/>
      <use xlink:href="#DejaVuSans-65" x="688.525391"/>
     </g>
    </g>
   </g>
   <g id="line2d_45">
    <path d="M 57.6 296.93952 
L 59.864161 296.93952 
L 60.430202 296.705341 
L 60.996242 295.428004 
L 61.562282 294.79998 
L 62.128323 294.959647 
L 62.694363 294.001644 
L 63.260403 293.692954 
L 64.392484 290.744433 
L 64.958524 289.967386 
L 65.524565 289.860941 
L 66.090605 290.265431 
L 66.656646 289.775785 
L 67.222686 290.105764 
L 67.788726 289.467095 
L 68.354767 289.47774 
L 68.920807 288.86036 
L 69.486847 289.147761 
L 70.052888 283.442319 
L 71.751009 256.767252 
L 72.883089 236.627896 
L 74.58121 196.774963 
L 76.279331 196.562074 
L 76.845372 196.02985 
L 77.411412 196.455629 
L 78.543493 195.923405 
L 79.109533 196.242739 
L 79.675573 196.242739 
L 80.241614 195.923405 
L 84.769937 195.81696 
L 85.335977 196.136294 
L 87.034098 195.60407 
L 89.298259 195.497626 
L 89.8643 195.391181 
L 90.43034 195.60407 
L 91.562421 195.178291 
L 92.128461 195.497626 
L 92.694501 195.071846 
L 93.260542 194.858957 
L 93.826582 195.071846 
L 94.958663 195.071846 
L 95.524703 195.391181 
L 96.090744 194.965402 
L 98.920945 194.858957 
L 99.486986 194.646067 
L 100.619066 194.752512 
L 102.883228 194.646067 
L 103.449268 194.326733 
L 105.713429 194.220288 
L 106.27947 193.900954 
L 106.84551 194.220288 
L 109.109671 193.794509 
L 109.675712 194.007398 
L 110.241752 193.262285 
L 110.807793 193.049395 
L 111.373833 193.049395 
L 111.939873 193.794509 
L 113.637994 193.581619 
L 114.204035 193.688064 
L 114.770075 193.475174 
L 117.034236 193.36873 
L 117.600277 193.15584 
L 118.166317 193.15584 
L 118.732357 192.94295 
L 119.298398 193.262285 
L 120.996519 192.197837 
L 122.128599 192.197837 
L 122.69464 192.410726 
L 123.82672 192.304282 
L 124.392761 192.091392 
L 125.524841 192.304282 
L 126.656922 191.346278 
L 127.222963 191.665613 
L 128.355043 191.772058 
L 128.921084 192.197837 
L 130.619205 192.091392 
L 131.185245 191.665613 
L 131.751285 191.984947 
L 132.883366 191.984947 
L 134.015447 191.665613 
L 135.147527 191.772058 
L 135.713568 191.452723 
L 139.67585 191.452723 
L 140.24189 191.133389 
L 140.807931 191.133389 
L 141.940012 191.452723 
L 147.034375 191.346278 
L 147.600415 191.239834 
L 148.166455 190.601165 
L 148.732496 190.601165 
L 149.298536 190.814054 
L 152.694778 190.70761 
L 153.260818 190.49472 
L 153.826859 190.814054 
L 154.958939 190.601165 
L 156.09102 190.70761 
L 157.223101 190.388275 
L 159.487262 190.70761 
L 160.053303 190.70761 
L 160.619343 190.28183 
L 161.185383 190.49472 
L 161.751424 190.388275 
L 162.317464 190.601165 
L 165.713706 190.601165 
L 166.279746 190.28183 
L 166.845787 190.601165 
L 167.977867 190.49472 
L 169.675988 190.49472 
L 170.242029 190.175386 
L 170.808069 190.388275 
L 175.336392 190.28183 
L 175.902432 189.962496 
L 176.468473 190.28183 
L 177.600553 190.175386 
L 180.996795 190.068941 
L 182.128876 189.962496 
L 188.35532 189.962496 
L 188.92136 189.749606 
L 190.053441 189.856051 
L 191.751562 189.749606 
L 192.317602 189.430272 
L 192.883643 189.430272 
L 193.449683 189.749606 
L 197.411965 189.643162 
L 198.544046 189.536717 
L 203.072369 189.536717 
L 203.638409 189.323827 
L 205.33653 189.536717 
L 205.902571 189.430272 
L 206.468611 189.536717 
L 207.034651 189.323827 
L 207.600692 189.536717 
L 208.166732 189.430272 
L 208.732772 188.898048 
L 212.695055 188.791603 
L 213.827135 188.685158 
L 214.959216 188.791603 
L 215.525256 188.791603 
L 216.091297 188.365824 
L 217.223378 188.259379 
L 218.921499 188.152934 
L 220.61962 187.727155 
L 221.18566 187.301376 
L 221.7517 187.301376 
L 222.317741 186.556262 
L 222.883781 184.746701 
L 223.449821 181.553357 
L 224.015862 173.463552 
L 224.581902 168.567091 
L 226.280023 136.846541 
L 226.846063 131.524301 
L 227.412104 131.524301 
L 227.978144 130.992077 
L 228.544184 129.927629 
L 229.110225 129.395405 
L 230.242305 128.011622 
L 230.808346 128.011622 
L 231.374386 127.692288 
L 232.506467 127.692288 
L 233.638548 127.372954 
L 234.204588 127.479398 
L 235.902709 127.266509 
L 243.261233 127.266509 
L 243.827274 126.947174 
L 244.959354 127.266509 
L 246.657476 127.266509 
L 247.223516 127.053619 
L 247.789556 127.266509 
L 248.921637 127.160064 
L 255.148081 127.053619 
L 255.714121 126.947174 
L 256.846202 127.053619 
L 279.487816 127.053619 
L 280.053856 126.84073 
L 281.185937 126.947174 
L 286.2803 126.947174 
L 286.84634 126.62784 
L 287.41238 126.947174 
L 301.563389 126.947174 
L 302.129429 126.62784 
L 302.69547 126.62784 
L 303.26151 126.947174 
L 307.223793 126.947174 
L 307.789833 126.734285 
L 308.355873 126.947174 
L 317.978559 126.84073 
L 318.544599 126.62784 
L 319.11064 126.84073 
L 321.940841 126.84073 
L 322.506882 125.989171 
L 323.072922 126.41495 
L 326.469164 126.41495 
L 327.035205 125.669837 
L 327.601245 125.882726 
L 328.167285 126.41495 
L 329.299366 126.41495 
L 329.865406 126.734285 
L 330.431447 126.41495 
L 332.129568 126.41495 
L 332.695608 126.734285 
L 333.261648 126.41495 
L 333.827689 126.308506 
L 334.959769 126.41495 
L 336.09185 126.308506 
L 337.223931 126.308506 
L 337.789971 126.734285 
L 338.356012 126.41495 
L 338.922052 126.734285 
L 340.054133 126.734285 
L 340.620173 126.308506 
L 341.186213 126.734285 
L 341.752254 126.734285 
L 342.318294 126.308506 
L 342.884334 126.734285 
L 344.582455 126.734285 
L 345.148496 126.41495 
L 346.846617 126.521395 
L 347.412657 126.734285 
L 348.544738 126.41495 
L 349.110778 126.734285 
L 350.808899 126.41495 
L 351.374939 126.734285 
L 351.94098 126.308506 
L 352.50702 126.41495 
L 353.073061 126.734285 
L 353.639101 126.308506 
L 354.205141 126.734285 
L 354.771182 126.62784 
L 355.337222 126.308506 
L 355.903262 126.308506 
L 356.469303 126.734285 
L 357.035343 126.41495 
L 357.601383 126.41495 
L 358.167424 126.734285 
L 364.393867 126.62784 
L 365.525948 126.308506 
L 366.091988 126.521395 
L 367.79011 126.62784 
L 368.35615 126.734285 
L 368.92219 126.095616 
L 370.054271 126.095616 
L 370.620311 126.308506 
L 371.186352 126.734285 
L 371.752392 126.62784 
L 372.318432 126.734285 
L 374.016553 126.521395 
L 374.582594 126.734285 
L 377.412795 126.62784 
L 377.978836 126.41495 
L 378.544876 126.734285 
L 381.375078 126.62784 
L 382.507159 126.308506 
L 383.073199 126.62784 
L 383.639239 126.41495 
L 384.20528 126.62784 
L 390.431723 126.62784 
L 390.997764 126.41495 
L 391.563804 126.62784 
L 392.129844 126.308506 
L 392.695885 126.62784 
L 393.261925 126.41495 
L 393.827965 126.62784 
L 394.394006 126.62784 
L 394.960046 126.41495 
L 395.526086 126.62784 
L 400.054409 126.62784 
L 400.62045 126.41495 
L 401.18649 126.62784 
L 409.111055 126.62784 
L 409.677095 126.41495 
L 410.243135 126.62784 
L 414.205418 126.62784 
L 414.771458 126.308506 
L 415.337499 126.62784 
L 418.1677 126.62784 
L 418.733741 126.308506 
L 419.299781 126.62784 
L 430.054548 126.521395 
L 430.620588 126.308506 
L 431.186628 126.62784 
L 431.752669 126.202061 
L 432.318709 126.62784 
L 435.714951 126.62784 
L 436.280991 126.202061 
L 436.847032 126.62784 
L 437.979112 126.62784 
L 438.545153 126.41495 
L 439.111193 126.62784 
L 442.507435 126.62784 
L 443.073476 126.41495 
L 443.639516 126.62784 
L 444.205556 126.521395 
L 444.771597 126.62784 
L 445.337637 126.521395 
L 446.469718 126.62784 
L 448.733879 126.62784 
L 449.299919 127.160064 
L 449.86596 176.444006 
L 450.432 307.584 
L 450.432 307.584 
" clip-path="url(#p887994323c)" style="fill: none; stroke: #ff7f0e; stroke-width: 1.2; stroke-linecap: square"/>
   </g>
   <g id="line2d_46">
    <path d="M 57.6 296.93952 
L 59.305493 296.93952 
L 59.873991 295.566382 
L 60.442489 295.161892 
L 61.010987 294.917069 
L 62.71648 293.150085 
L 63.853476 290.084475 
L 64.421974 290.669921 
L 64.990472 290.020608 
L 65.55897 289.637407 
L 66.127467 290.212209 
L 66.695965 289.797074 
L 67.832961 289.775785 
L 68.401459 288.509092 
L 68.969957 288.328136 
L 69.538454 281.728558 
L 70.67545 263.664876 
L 72.380944 232.838461 
L 72.949441 220.57602 
L 73.517939 205.13088 
L 74.086437 196.774963 
L 75.223433 196.668518 
L 75.791931 196.136294 
L 76.360428 196.562074 
L 76.928926 196.242739 
L 77.497424 196.349184 
L 78.065922 196.02985 
L 78.63442 196.349184 
L 79.202918 195.923405 
L 79.771415 195.923405 
L 80.339913 196.242739 
L 80.908411 196.242739 
L 81.476909 195.81696 
L 83.7509 195.81696 
L 84.319398 196.02985 
L 85.456394 195.710515 
L 90.572874 195.60407 
L 91.141372 195.391181 
L 91.70987 195.391181 
L 92.278368 195.178291 
L 93.983861 195.284736 
L 94.552359 195.497626 
L 95.120857 195.178291 
L 96.82635 195.071846 
L 97.963346 194.858957 
L 98.531844 194.965402 
L 99.100342 194.646067 
L 99.668839 194.646067 
L 100.237337 194.433178 
L 100.805835 194.858957 
L 101.942831 194.752512 
L 102.511329 194.220288 
L 105.353818 194.113843 
L 105.922315 193.900954 
L 107.627809 193.900954 
L 108.196307 194.220288 
L 108.764805 193.900954 
L 109.9018 193.900954 
L 110.470298 193.688064 
L 111.038796 193.049395 
L 111.607294 193.262285 
L 112.175792 193.262285 
L 112.744289 192.94295 
L 116.723774 192.836506 
L 117.292272 193.262285 
L 117.86077 192.836506 
L 120.703259 192.730061 
L 121.271757 192.410726 
L 121.840255 192.623616 
L 124.114246 192.304282 
L 124.682744 192.623616 
L 125.251242 192.623616 
L 126.388237 191.772058 
L 126.956735 192.091392 
L 127.525233 191.984947 
L 130.367722 192.410726 
L 131.504718 192.197837 
L 132.073216 192.304282 
L 133.778709 192.091392 
L 134.347207 192.197837 
L 135.484203 192.091392 
L 136.621198 192.091392 
L 137.189696 191.878502 
L 139.463687 191.878502 
L 140.032185 191.452723 
L 140.600683 191.772058 
L 141.169181 191.559168 
L 142.874674 191.665613 
L 143.443172 191.346278 
L 151.402142 191.346278 
L 151.97064 191.133389 
L 154.244631 191.026944 
L 154.813129 191.346278 
L 157.08712 191.346278 
L 158.224116 191.026944 
L 158.792614 191.239834 
L 159.361111 190.601165 
L 159.929609 191.239834 
L 162.772098 191.133389 
L 163.340596 190.814054 
L 163.909094 191.133389 
L 165.614588 191.133389 
L 166.751583 190.70761 
L 167.320081 190.814054 
L 169.594072 190.388275 
L 170.16257 190.814054 
L 173.573557 190.70761 
L 175.279051 190.49472 
L 181.532527 190.388275 
L 182.101025 190.28183 
L 182.669522 190.388275 
L 183.806518 190.28183 
L 185.512012 190.28183 
L 186.080509 189.962496 
L 190.059994 189.856051 
L 190.628492 189.749606 
L 191.765488 189.856051 
L 192.333986 189.749606 
L 192.902483 189.856051 
L 194.607977 189.536717 
L 195.176475 189.749606 
L 205.409436 189.643162 
L 206.546431 189.323827 
L 207.114929 189.430272 
L 208.251925 189.323827 
L 212.799907 189.217382 
L 213.368405 189.004493 
L 213.936903 189.217382 
L 214.505401 189.217382 
L 215.073899 188.365824 
L 215.642397 189.217382 
L 217.916388 189.217382 
L 218.484886 188.791603 
L 220.190379 188.791603 
L 220.758877 189.004493 
L 221.327375 188.791603 
L 221.895873 189.004493 
L 222.46437 189.004493 
L 223.032868 188.791603 
L 224.169864 188.791603 
L 224.738362 188.472269 
L 225.30686 188.472269 
L 225.875357 187.727155 
L 226.443855 187.727155 
L 227.012353 187.407821 
L 228.717847 187.301376 
L 229.286344 186.556262 
L 229.854842 186.449818 
L 230.42334 185.917594 
L 230.991838 185.598259 
L 231.560336 185.491814 
L 232.128834 184.640256 
L 233.265829 179.956685 
L 233.834327 177.18912 
L 235.539821 171.334656 
L 236.676816 167.715533 
L 238.38231 161.00951 
L 238.950808 160.690176 
L 239.519305 158.34839 
L 240.656301 152.919706 
L 242.361795 144.723456 
L 244.635786 132.269414 
L 245.204284 132.16297 
L 245.772781 132.269414 
L 247.478275 131.843635 
L 248.046773 130.672742 
L 249.752266 129.28896 
L 250.320764 128.543846 
L 250.889262 128.011622 
L 252.026258 127.905178 
L 253.163253 127.585843 
L 254.868747 127.372954 
L 255.437245 127.479398 
L 256.005742 127.372954 
L 257.142738 127.479398 
L 265.101708 127.372954 
L 266.238703 127.266509 
L 271.923682 127.266509 
L 272.492179 126.84073 
L 273.060677 127.160064 
L 274.197673 127.266509 
L 278.177158 127.266509 
L 278.745656 127.053619 
L 299.211577 127.053619 
L 299.780075 126.734285 
L 300.348573 127.160064 
L 303.75956 127.160064 
L 304.328058 126.84073 
L 304.896556 127.160064 
L 307.170547 127.053619 
L 307.739045 126.947174 
L 308.307543 127.053619 
L 309.444538 126.947174 
L 310.581534 127.053619 
L 319.677499 126.947174 
L 320.245997 126.84073 
L 321.382993 126.947174 
L 322.519988 126.947174 
L 323.088486 126.62784 
L 323.656984 125.989171 
L 324.225482 126.41495 
L 325.362478 126.521395 
L 327.067971 126.521395 
L 327.636469 126.202061 
L 328.204967 126.202061 
L 328.773465 126.41495 
L 329.341962 125.989171 
L 329.91046 125.989171 
L 330.478958 126.41495 
L 331.047456 126.41495 
L 331.615954 126.095616 
L 332.184452 126.41495 
L 334.458443 126.521395 
L 335.026941 126.734285 
L 335.595438 125.989171 
L 336.732434 126.734285 
L 337.86943 126.734285 
L 338.437928 126.41495 
L 340.143421 126.41495 
L 340.711919 126.734285 
L 341.848915 126.41495 
L 342.417412 126.521395 
L 343.554408 126.41495 
L 344.122906 126.734285 
L 344.691404 126.521395 
L 345.259902 126.734285 
L 346.965395 126.41495 
L 348.102391 126.734285 
L 348.670889 126.521395 
L 349.239386 126.734285 
L 349.807884 126.521395 
L 350.376382 126.734285 
L 351.513378 126.41495 
L 352.081876 126.734285 
L 353.218871 126.62784 
L 354.355867 126.734285 
L 354.924365 126.62784 
L 355.492863 126.734285 
L 356.06136 126.62784 
L 356.629858 125.989171 
L 357.198356 126.41495 
L 358.335352 126.41495 
L 359.472347 126.734285 
L 360.609343 126.095616 
L 362.314836 126.41495 
L 362.883334 126.734285 
L 365.725823 126.62784 
L 366.294321 126.41495 
L 367.431317 126.41495 
L 367.999815 125.989171 
L 368.568313 126.734285 
L 370.273806 126.41495 
L 370.842304 126.734285 
L 371.9793 126.41495 
L 372.547797 126.62784 
L 374.821789 126.521395 
L 375.390287 126.41495 
L 375.958784 126.62784 
L 376.527282 126.41495 
L 377.09578 126.62784 
L 377.664278 126.41495 
L 378.232776 126.62784 
L 379.938269 126.41495 
L 380.506767 126.62784 
L 381.643763 126.521395 
L 390.17123 126.41495 
L 390.739728 126.308506 
L 391.876724 126.62784 
L 392.445221 126.41495 
L 393.013719 126.41495 
L 393.582217 126.62784 
L 394.150715 126.62784 
L 394.719213 126.41495 
L 395.287711 126.62784 
L 395.856208 126.521395 
L 396.993204 126.62784 
L 399.835693 126.62784 
L 400.404191 126.41495 
L 400.972689 126.62784 
L 408.363161 126.521395 
L 408.931658 126.41495 
L 409.500156 126.62784 
L 411.774148 126.521395 
L 412.342645 126.308506 
L 412.911143 126.521395 
L 419.733117 126.62784 
L 420.301615 126.308506 
L 420.870113 126.62784 
L 421.438611 126.41495 
L 422.007109 126.62784 
L 422.575606 126.521395 
L 423.712602 126.62784 
L 424.2811 126.521395 
L 424.849598 126.62784 
L 425.418096 126.521395 
L 425.986593 126.62784 
L 426.555091 126.308506 
L 427.123589 126.62784 
L 432.808567 126.62784 
L 433.377065 126.202061 
L 433.945563 126.521395 
L 435.082559 126.62784 
L 435.651056 126.62784 
L 436.788052 126.202061 
L 437.35655 126.62784 
L 438.493546 126.521395 
L 439.630541 126.62784 
L 440.199039 126.521395 
L 440.767537 126.62784 
L 441.336035 126.521395 
L 442.47303 126.62784 
L 443.041528 126.62784 
L 443.610026 126.308506 
L 444.178524 126.62784 
L 445.31552 126.521395 
L 448.726507 126.62784 
L 449.295004 127.053619 
L 449.863502 274.096466 
L 450.432 307.584 
L 450.432 307.584 
" clip-path="url(#p887994323c)" style="fill: none; stroke: #ffbb78; stroke-width: 1.2; stroke-linecap: square"/>
   </g>
   <g id="line2d_47">
    <path d="M 57.6 295.800561 
L 59.31293 295.800561 
L 59.883907 295.278981 
L 61.02586 294.789335 
L 62.738791 293.075574 
L 63.309767 292.032415 
L 64.451721 288.796493 
L 66.164651 288.732626 
L 67.306605 288.498447 
L 68.448558 288.55167 
L 69.019535 287.902356 
L 69.590512 286.69953 
L 71.874419 256.607585 
L 73.016372 244.760279 
L 74.158326 229.006449 
L 75.300279 201.735291 
L 75.871256 194.965402 
L 78.72614 194.539622 
L 79.297116 194.113843 
L 83.293953 194.007398 
L 84.435907 193.900954 
L 88.432744 193.794509 
L 89.003721 193.581619 
L 91.858605 193.581619 
L 92.429581 193.36873 
L 93.571535 193.36873 
L 94.142512 193.15584 
L 96.997395 193.049395 
L 98.139349 192.94295 
L 100.423256 192.836506 
L 100.994233 192.623616 
L 103.849116 192.517171 
L 104.99107 192.410726 
L 105.562047 192.410726 
L 106.133023 192.197837 
L 107.274977 192.197837 
L 107.845953 191.772058 
L 108.987907 191.772058 
L 109.558884 191.559168 
L 112.413767 191.559168 
L 112.984744 191.346278 
L 116.981581 191.346278 
L 117.552558 191.133389 
L 123.262326 191.026944 
L 124.404279 190.70761 
L 126.117209 190.49472 
L 127.259163 190.601165 
L 128.401116 190.601165 
L 128.972093 190.388275 
L 136.394791 190.28183 
L 137.536744 190.175386 
L 142.675535 190.068941 
L 143.817488 189.962496 
L 149.527256 189.856051 
L 150.098233 189.536717 
L 160.946791 189.430272 
L 162.088744 189.323827 
L 171.795349 189.217382 
L 172.937302 189.110938 
L 175.792186 189.004493 
L 176.363163 188.685158 
L 177.505116 188.791603 
L 178.64707 188.685158 
L 191.208558 188.578714 
L 192.350512 188.472269 
L 199.202233 188.472269 
L 199.773209 188.259379 
L 200.915163 188.365824 
L 203.770047 188.259379 
L 204.912 188.152934 
L 216.331535 188.04649 
L 216.902512 187.62071 
L 232.88986 187.514266 
L 234.031814 187.407821 
L 239.170605 187.301376 
L 240.312558 187.194931 
L 250.59014 187.194931 
L 251.161116 186.982042 
L 255.157953 186.982042 
L 255.72893 186.769152 
L 268.290419 186.662707 
L 269.432372 186.556262 
L 270.574326 186.556262 
L 271.145302 186.236928 
L 274.571163 186.236928 
L 275.14214 185.598259 
L 279.138977 185.598259 
L 279.709953 185.278925 
L 283.135814 185.17248 
L 283.706791 184.746701 
L 284.848744 184.746701 
L 285.419721 184.214477 
L 285.990698 184.214477 
L 286.561674 182.937139 
L 287.703628 182.937139 
L 288.274605 181.659802 
L 289.416558 181.659802 
L 289.987535 180.701798 
L 292.842419 180.595354 
L 293.413395 180.382464 
L 294.555349 180.382464 
L 295.126326 180.169574 
L 295.697302 180.169574 
L 296.268279 179.63735 
L 297.410233 179.63735 
L 297.981209 178.572902 
L 298.552186 178.572902 
L 299.123163 177.508454 
L 299.69414 177.508454 
L 300.265116 176.550451 
L 300.836093 176.656896 
L 301.40707 175.166669 
L 302.549023 175.166669 
L 303.12 173.889331 
L 303.690977 173.889331 
L 304.261953 173.144218 
L 305.403907 173.144218 
L 305.974884 171.973325 
L 306.54586 171.973325 
L 307.116837 171.015322 
L 308.258791 171.015322 
L 308.829767 170.695987 
L 309.971721 170.695987 
L 310.542698 170.270208 
L 311.684651 170.270208 
L 312.255628 169.844429 
L 312.826605 169.844429 
L 313.397581 168.779981 
L 314.539535 168.779981 
L 315.110512 167.715533 
L 315.681488 167.715533 
L 316.252465 166.438195 
L 316.823442 166.438195 
L 317.394419 165.054413 
L 317.965395 165.054413 
L 318.536372 164.202854 
L 319.107349 164.202854 
L 319.678326 162.606182 
L 320.249302 160.370842 
L 320.820279 160.370842 
L 321.391256 156.751718 
L 321.962233 145.894349 
L 323.104186 135.356314 
L 323.675163 128.756736 
L 324.24614 128.650291 
L 324.817116 128.756736 
L 325.388093 128.650291 
L 325.95907 128.224512 
L 326.530047 126.84073 
L 327.101023 126.202061 
L 328.242977 125.669837 
L 328.813953 124.924723 
L 329.38493 124.605389 
L 331.09786 124.498944 
L 332.810791 124.286054 
L 341.375442 124.17961 
L 342.517395 124.073165 
L 372.208186 123.96672 
L 373.35014 123.860275 
L 449.861023 123.75383 
L 450.432 124.498944 
L 450.432 124.498944 
" clip-path="url(#p887994323c)" style="fill: none; stroke: #2ca02c; stroke-width: 1.2; stroke-linecap: square"/>
   </g>
   <g id="line2d_48">
    <path d="M 57.6 296.460518 
L 59.303029 296.460518 
L 59.870705 296.183762 
L 61.573734 294.406134 
L 62.709087 293.182019 
L 63.276763 292.096282 
L 63.844439 290.457032 
L 64.412116 289.445806 
L 67.818173 289.083894 
L 68.38585 288.211046 
L 68.953526 287.998157 
L 69.521202 286.550508 
L 70.656555 277.662367 
L 71.791908 267.613978 
L 72.359584 260.439598 
L 72.92726 251.157612 
L 74.062613 225.749238 
L 75.197965 197.732966 
L 75.765642 195.284736 
L 77.468671 195.178291 
L 78.036347 195.071846 
L 78.604023 194.752512 
L 79.739376 194.646067 
L 84.848462 194.539622 
L 85.416139 194.326733 
L 86.551491 194.326733 
L 87.119168 194.113843 
L 89.957549 194.113843 
L 90.525225 193.900954 
L 92.795931 193.794509 
L 93.931283 193.581619 
L 94.49896 193.688064 
L 96.201988 193.475174 
L 99.04037 193.36873 
L 100.743399 193.15584 
L 103.58178 193.049395 
L 104.149457 192.836506 
L 106.987838 192.836506 
L 107.555514 192.197837 
L 108.690867 192.197837 
L 109.258543 191.878502 
L 114.935306 191.772058 
L 115.502983 191.559168 
L 118.341364 191.559168 
L 118.90904 191.133389 
L 127.424185 191.026944 
L 128.559538 190.920499 
L 133.668624 190.814054 
L 134.803977 190.70761 
L 135.371653 190.814054 
L 136.507006 190.70761 
L 143.319121 190.601165 
L 144.454474 190.49472 
L 150.131237 190.388275 
L 151.26659 190.28183 
L 155.808 190.175386 
L 156.375676 189.962496 
L 171.13526 189.856051 
L 172.270613 189.749606 
L 178.515052 189.643162 
L 179.650405 189.536717 
L 185.894844 189.430272 
L 186.46252 189.110938 
L 191.571607 189.004493 
L 192.139283 188.898048 
L 193.274636 189.004493 
L 202.357457 188.898048 
L 203.492809 188.791603 
L 208.601896 188.791603 
L 209.169572 188.578714 
L 221.090775 188.472269 
L 221.658451 188.259379 
L 227.335214 188.152934 
L 228.470566 188.04649 
L 240.391769 187.940045 
L 241.527121 187.8336 
L 250.042266 187.727155 
L 251.177618 187.62071 
L 259.125087 187.62071 
L 259.692763 187.088486 
L 261.395792 187.088486 
L 261.963468 186.662707 
L 272.181642 186.556262 
L 272.749318 186.236928 
L 273.884671 186.236928 
L 274.452347 184.95959 
L 275.587699 184.95959 
L 276.155376 184.001587 
L 278.993757 184.001587 
L 279.561434 182.72425 
L 282.967491 182.72425 
L 283.535168 182.404915 
L 286.941225 182.404915 
L 287.508902 180.701798 
L 291.482636 180.701798 
L 292.050312 180.382464 
L 293.753341 180.382464 
L 294.321017 179.85024 
L 295.45637 179.85024 
L 296.024046 178.253568 
L 299.430104 178.253568 
L 299.99778 176.869786 
L 303.971514 176.869786 
L 304.539191 176.231117 
L 306.24222 176.231117 
L 306.809896 175.698893 
L 308.512925 175.592448 
L 309.080601 175.379558 
L 310.215954 175.379558 
L 310.78363 174.847334 
L 312.486659 174.847334 
L 313.054335 174.208666 
L 314.757364 174.102221 
L 315.32504 173.889331 
L 315.892717 173.889331 
L 316.460393 172.611994 
L 317.595746 172.611994 
L 318.163422 171.547546 
L 318.731098 171.547546 
L 319.298775 170.057318 
L 320.434127 170.057318 
L 321.001803 168.99287 
L 321.56948 168.673536 
L 322.137156 168.673536 
L 322.704832 168.034867 
L 323.840185 167.928422 
L 324.407861 167.289754 
L 325.543214 167.183309 
L 326.11089 166.54464 
L 327.246243 166.54464 
L 327.813919 165.799526 
L 328.949272 165.799526 
L 329.516948 164.309299 
L 330.084624 164.415744 
L 330.652301 164.309299 
L 331.219977 163.138406 
L 332.923006 163.138406 
L 333.490682 161.967514 
L 336.89674 161.967514 
L 337.464416 160.903066 
L 340.870474 160.796621 
L 341.43815 160.477286 
L 342.005827 160.477286 
L 342.573503 158.56128 
L 343.141179 158.56128 
L 344.276532 149.726362 
L 345.979561 133.333862 
L 346.547237 128.543846 
L 348.250266 128.543846 
L 348.817942 128.330957 
L 349.385618 127.905178 
L 349.953295 127.266509 
L 350.520971 126.947174 
L 351.088647 126.84073 
L 352.224 126.095616 
L 353.359353 125.244058 
L 355.630058 124.924723 
L 374.931052 124.818278 
L 376.066405 124.711834 
L 392.529017 124.605389 
L 393.66437 124.498944 
L 448.728971 124.498944 
L 449.296647 125.031168 
L 449.864324 149.087693 
L 450.432 307.584 
L 450.432 307.584 
" clip-path="url(#p887994323c)" style="fill: none; stroke: #98df8a; stroke-width: 1.2; stroke-linecap: square"/>
   </g>
   <g id="line2d_49">
    <path d="M 57.6 300.04345 
L 59.290812 300.026419 
L 60.41802 298.581963 
L 60.981624 298.415909 
L 61.545228 296.907587 
L 62.108832 297.053416 
L 62.672436 296.588252 
L 63.799644 293.096863 
L 64.363248 289.839652 
L 64.926852 288.477158 
L 65.490456 285.826683 
L 66.05406 281.047311 
L 66.617664 275.075758 
L 67.181268 273.330063 
L 67.744872 265.144458 
L 68.308476 262.195937 
L 68.87208 262.951695 
L 70.562892 262.983629 
L 71.126496 262.579139 
L 71.6901 262.728161 
L 72.253704 262.74945 
L 72.817308 262.621716 
L 73.380912 262.706872 
L 73.944516 262.55785 
L 74.508121 262.55785 
L 75.071725 262.717517 
L 76.762537 262.621716 
L 78.453349 262.674939 
L 81.834973 262.65365 
L 85.780201 262.600428 
L 86.343805 262.504627 
L 88.598221 262.579139 
L 91.416241 262.536561 
L 91.979845 262.430116 
L 93.107053 262.483338 
L 94.797865 262.24916 
L 95.361469 262.472694 
L 100.433905 262.430116 
L 100.997509 262.24916 
L 102.124717 262.387538 
L 105.506341 262.355604 
L 108.887966 262.121426 
L 109.45157 262.270449 
L 112.833194 262.227871 
L 118.469234 262.142715 
L 119.032838 262.046915 
L 120.160046 262.121426 
L 122.978066 262.068204 
L 124.105274 262.078848 
L 124.668878 261.876603 
L 125.232482 262.078848 
L 137.068166 261.951114 
L 141.013395 261.919181 
L 157.357911 261.716936 
L 169.193595 261.610491 
L 173.702428 261.546624 
L 182.156488 261.450824 
L 185.538112 261.41889 
L 190.046944 261.386957 
L 190.610548 261.259223 
L 191.174152 261.355023 
L 193.992172 261.344379 
L 203.57344 261.248579 
L 208.082273 261.184712 
L 211.463897 261.142134 
L 221.045165 261.067622 
L 222.735977 261.003756 
L 224.426789 260.929244 
L 228.372017 260.876022 
L 240.771306 260.769577 
L 242.462118 260.673777 
L 243.589326 260.556687 
L 247.534554 260.514109 
L 255.42501 260.269286 
L 257.679426 259.949952 
L 258.806634 259.918019 
L 259.370238 259.726418 
L 261.624654 259.58804 
L 263.87907 259.343217 
L 265.569882 259.247416 
L 268.387902 259.226127 
L 275.151151 258.055235 
L 277.969171 257.810412 
L 279.096379 257.703967 
L 280.787191 257.672033 
L 281.914399 257.448499 
L 322.493888 256.607585 
L 324.1847 256.458563 
L 325.311908 256.469207 
L 327.00272 256.341473 
L 329.257136 256.320184 
L 330.947948 255.968916 
L 332.63876 255.841183 
L 333.765968 255.511204 
L 336.583989 255.053491 
L 337.147593 255.064136 
L 338.274801 254.925757 
L 340.529217 254.734157 
L 342.220029 254.606423 
L 345.038049 253.722931 
L 347.856069 253.286508 
L 348.419673 253.265219 
L 348.983277 253.041684 
L 350.674089 252.967173 
L 351.801297 252.732995 
L 353.492109 252.445594 
L 354.619317 252.094326 
L 356.873733 251.711124 
L 359.128149 251.253412 
L 360.818961 251.104389 
L 361.946169 250.934077 
L 362.509773 250.923433 
L 363.636981 250.753121 
L 368.145813 250.518943 
L 369.836626 250.497654 
L 370.963834 250.36992 
L 373.781854 250.199608 
L 374.909062 249.773829 
L 376.03627 249.614162 
L 381.108706 249.028716 
L 384.49033 248.869048 
L 387.871954 248.592292 
L 390.12637 248.42198 
L 392.380786 248.102646 
L 393.507994 248.006845 
L 394.071598 247.687511 
L 395.76241 247.293665 
L 396.889618 246.889175 
L 397.453222 246.612419 
L 398.58043 246.388884 
L 399.144034 246.218573 
L 400.271242 246.058906 
L 401.962055 245.441526 
L 403.652867 245.345725 
L 405.343679 245.164769 
L 407.034491 244.632545 
L 409.852511 244.249344 
L 412.106927 243.802276 
L 413.234135 243.802276 
L 414.361343 243.472297 
L 416.615759 242.663316 
L 417.742967 242.567516 
L 419.997383 242.056581 
L 421.124591 241.535002 
L 423.942611 241.194378 
L 425.069819 241.034711 
L 427.324235 240.949555 
L 430.142255 240.800532 
L 431.269463 240.470554 
L 431.833067 239.746729 
L 432.396671 240.300242 
L 432.960275 240.055419 
L 433.523879 240.012841 
L 434.087484 239.757373 
L 434.651088 239.842529 
L 435.778296 239.161283 
L 436.905504 238.831304 
L 438.032712 238.724859 
L 441.414336 238.501325 
L 444.79596 238.405524 
L 446.486772 238.341658 
L 447.61398 238.245857 
L 449.304792 238.245857 
L 449.868396 238.448102 
L 450.432 307.584 
L 450.432 307.584 
" clip-path="url(#p887994323c)" style="fill: none; stroke: #d62728; stroke-width: 1.2; stroke-linecap: square"/>
   </g>
   <g id="patch_3">
    <path d="M 57.6 307.584 
L 57.6 41.472 
" style="fill: none; stroke: #000000; stroke-width: 0.8; stroke-linejoin: miter; stroke-linecap: square"/>
   </g>
   <g id="patch_4">
    <path d="M 414.72 307.584 
L 414.72 41.472 
" style="fill: none; stroke: #000000; stroke-width: 0.8; stroke-linejoin: miter; stroke-linecap: square"/>
   </g>
   <g id="patch_5">
    <path d="M 57.6 307.584 
L 414.72 307.584 
" style="fill: none; stroke: #000000; stroke-width: 0.8; stroke-linejoin: miter; stroke-linecap: square"/>
   </g>
   <g id="patch_6">
    <path d="M 57.6 41.472 
L 414.72 41.472 
" style="fill: none; stroke: #000000; stroke-width: 0.8; stroke-linejoin: miter; stroke-linecap: square"/>
   </g>
   <g id="text_25">
    <!-- Test 1 -->
    <g transform="translate(218.62125 8.59725) scale(0.12 -0.12)">
     <defs>
      <path id="DejaVuSans-74" d="M 1172 4494 
L 1172 3500 
L 2356 3500 
L 2356 3053 
L 1172 3053 
L 1172 1153 
Q 1172 725 1289 603 
Q 1406 481 1766 481 
L 2356 481 
L 2356 0 
L 1766 0 
Q 1100 0 847 248 
Q 594 497 594 1153 
L 594 3053 
L 172 3053 
L 172 3500 
L 594 3500 
L 594 4494 
L 1172 4494 
z
" transform="scale(0.015625)"/>
     </defs>
     <use xlink:href="#DejaVuSans-54"/>
     <use xlink:href="#DejaVuSans-65" x="44.083984"/>
     <use xlink:href="#DejaVuSans-73" x="105.607422"/>
     <use xlink:href="#DejaVuSans-74" x="157.707031"/>
     <use xlink:href="#DejaVuSans-20" x="196.916016"/>
     <use xlink:href="#DejaVuSans-31" x="228.703125"/>
    </g>
    <!-- Memory usage as concurrent users increase -->
    <g transform="translate(103.4025 22.034625) scale(0.12 -0.12)">
     <defs>
      <path id="DejaVuSans-75" d="M 544 1381 
L 544 3500 
L 1119 3500 
L 1119 1403 
Q 1119 906 1312 657 
Q 1506 409 1894 409 
Q 2359 409 2629 706 
Q 2900 1003 2900 1516 
L 2900 3500 
L 3475 3500 
L 3475 0 
L 2900 0 
L 2900 538 
Q 2691 219 2414 64 
Q 2138 -91 1772 -91 
Q 1169 -91 856 284 
Q 544 659 544 1381 
z
M 1991 3584 
L 1991 3584 
z
" transform="scale(0.015625)"/>
      <path id="DejaVuSans-63" d="M 3122 3366 
L 3122 2828 
Q 2878 2963 2633 3030 
Q 2388 3097 2138 3097 
Q 1578 3097 1268 2742 
Q 959 2388 959 1747 
Q 959 1106 1268 751 
Q 1578 397 2138 397 
Q 2388 397 2633 464 
Q 2878 531 3122 666 
L 3122 134 
Q 2881 22 2623 -34 
Q 2366 -91 2075 -91 
Q 1284 -91 818 406 
Q 353 903 353 1747 
Q 353 2603 823 3093 
Q 1294 3584 2113 3584 
Q 2378 3584 2631 3529 
Q 2884 3475 3122 3366 
z
" transform="scale(0.015625)"/>
      <path id="DejaVuSans-6e" d="M 3513 2113 
L 3513 0 
L 2938 0 
L 2938 2094 
Q 2938 2591 2744 2837 
Q 2550 3084 2163 3084 
Q 1697 3084 1428 2787 
Q 1159 2491 1159 1978 
L 1159 0 
L 581 0 
L 581 3500 
L 1159 3500 
L 1159 2956 
Q 1366 3272 1645 3428 
Q 1925 3584 2291 3584 
Q 2894 3584 3203 3211 
Q 3513 2838 3513 2113 
z
" transform="scale(0.015625)"/>
     </defs>
     <use xlink:href="#DejaVuSans-4d"/>
     <use xlink:href="#DejaVuSans-65" x="86.279297"/>
     <use xlink:href="#DejaVuSans-6d" x="147.802734"/>
     <use xlink:href="#DejaVuSans-6f" x="245.214844"/>
     <use xlink:href="#DejaVuSans-72" x="306.396484"/>
     <use xlink:href="#DejaVuSans-79" x="347.509766"/>
     <use xlink:href="#DejaVuSans-20" x="406.689453"/>
     <use xlink:href="#DejaVuSans-75" x="438.476562"/>
     <use xlink:href="#DejaVuSans-73" x="501.855469"/>
     <use xlink:href="#DejaVuSans-61" x="553.955078"/>
     <use xlink:href="#DejaVuSans-67" x="615.234375"/>
     <use xlink:href="#DejaVuSans-65" x="678.710938"/>
     <use xlink:href="#DejaVuSans-20" x="740.234375"/>
     <use xlink:href="#DejaVuSans-61" x="772.021484"/>
     <use xlink:href="#DejaVuSans-73" x="833.300781"/>
     <use xlink:href="#DejaVuSans-20" x="885.400391"/>
     <use xlink:href="#DejaVuSans-63" x="917.1875"/>
     <use xlink:href="#DejaVuSans-6f" x="972.167969"/>
     <use xlink:href="#DejaVuSans-6e" x="1033.349609"/>
     <use xlink:href="#DejaVuSans-63" x="1096.728516"/>
     <use xlink:href="#DejaVuSans-75" x="1151.708984"/>
     <use xlink:href="#DejaVuSans-72" x="1215.087891"/>
     <use xlink:href="#DejaVuSans-72" x="1254.451172"/>
     <use xlink:href="#DejaVuSans-65" x="1293.314453"/>
     <use xlink:href="#DejaVuSans-6e" x="1354.837891"/>
     <use xlink:href="#DejaVuSans-74" x="1418.216797"/>
     <use xlink:href="#DejaVuSans-20" x="1457.425781"/>
     <use xlink:href="#DejaVuSans-75" x="1489.212891"/>
     <use xlink:href="#DejaVuSans-73" x="1552.591797"/>
     <use xlink:href="#DejaVuSans-65" x="1604.691406"/>
     <use xlink:href="#DejaVuSans-72" x="1666.214844"/>
     <use xlink:href="#DejaVuSans-73" x="1707.328125"/>
     <use xlink:href="#DejaVuSans-20" x="1759.427734"/>
     <use xlink:href="#DejaVuSans-69" x="1791.214844"/>
     <use xlink:href="#DejaVuSans-6e" x="1818.998047"/>
     <use xlink:href="#DejaVuSans-63" x="1882.376953"/>
     <use xlink:href="#DejaVuSans-72" x="1937.357422"/>
     <use xlink:href="#DejaVuSans-65" x="1976.220703"/>
     <use xlink:href="#DejaVuSans-61" x="2037.744141"/>
     <use xlink:href="#DejaVuSans-73" x="2099.023438"/>
     <use xlink:href="#DejaVuSans-65" x="2151.123047"/>
    </g>
    <!-- JVMs (Max Heap Size 16 GiB) -->
    <g transform="translate(149.2875 35.472) scale(0.12 -0.12)">
     <defs>
      <path id="DejaVuSans-4a" d="M 628 4666 
L 1259 4666 
L 1259 325 
Q 1259 -519 939 -900 
Q 619 -1281 -91 -1281 
L -331 -1281 
L -331 -750 
L -134 -750 
Q 284 -750 456 -515 
Q 628 -281 628 325 
L 628 4666 
z
" transform="scale(0.015625)"/>
      <path id="DejaVuSans-56" d="M 1831 0 
L 50 4666 
L 709 4666 
L 2188 738 
L 3669 4666 
L 4325 4666 
L 2547 0 
L 1831 0 
z
" transform="scale(0.015625)"/>
      <path id="DejaVuSans-28" d="M 1984 4856 
Q 1566 4138 1362 3434 
Q 1159 2731 1159 2009 
Q 1159 1288 1364 580 
Q 1569 -128 1984 -844 
L 1484 -844 
Q 1016 -109 783 600 
Q 550 1309 550 2009 
Q 550 2706 781 3412 
Q 1013 4119 1484 4856 
L 1984 4856 
z
" transform="scale(0.015625)"/>
      <path id="DejaVuSans-78" d="M 3513 3500 
L 2247 1797 
L 3578 0 
L 2900 0 
L 1881 1375 
L 863 0 
L 184 0 
L 1544 1831 
L 300 3500 
L 978 3500 
L 1906 2253 
L 2834 3500 
L 3513 3500 
z
" transform="scale(0.015625)"/>
      <path id="DejaVuSans-48" d="M 628 4666 
L 1259 4666 
L 1259 2753 
L 3553 2753 
L 3553 4666 
L 4184 4666 
L 4184 0 
L 3553 0 
L 3553 2222 
L 1259 2222 
L 1259 0 
L 628 0 
L 628 4666 
z
" transform="scale(0.015625)"/>
      <path id="DejaVuSans-53" d="M 3425 4513 
L 3425 3897 
Q 3066 4069 2747 4153 
Q 2428 4238 2131 4238 
Q 1616 4238 1336 4038 
Q 1056 3838 1056 3469 
Q 1056 3159 1242 3001 
Q 1428 2844 1947 2747 
L 2328 2669 
Q 3034 2534 3370 2195 
Q 3706 1856 3706 1288 
Q 3706 609 3251 259 
Q 2797 -91 1919 -91 
Q 1588 -91 1214 -16 
Q 841 59 441 206 
L 441 856 
Q 825 641 1194 531 
Q 1563 422 1919 422 
Q 2459 422 2753 634 
Q 3047 847 3047 1241 
Q 3047 1584 2836 1778 
Q 2625 1972 2144 2069 
L 1759 2144 
Q 1053 2284 737 2584 
Q 422 2884 422 3419 
Q 422 4038 858 4394 
Q 1294 4750 2059 4750 
Q 2388 4750 2728 4690 
Q 3069 4631 3425 4513 
z
" transform="scale(0.015625)"/>
      <path id="DejaVuSans-7a" d="M 353 3500 
L 3084 3500 
L 3084 2975 
L 922 459 
L 3084 459 
L 3084 0 
L 275 0 
L 275 525 
L 2438 3041 
L 353 3041 
L 353 3500 
z
" transform="scale(0.015625)"/>
      <path id="DejaVuSans-36" d="M 2113 2584 
Q 1688 2584 1439 2293 
Q 1191 2003 1191 1497 
Q 1191 994 1439 701 
Q 1688 409 2113 409 
Q 2538 409 2786 701 
Q 3034 994 3034 1497 
Q 3034 2003 2786 2293 
Q 2538 2584 2113 2584 
z
M 3366 4563 
L 3366 3988 
Q 3128 4100 2886 4159 
Q 2644 4219 2406 4219 
Q 1781 4219 1451 3797 
Q 1122 3375 1075 2522 
Q 1259 2794 1537 2939 
Q 1816 3084 2150 3084 
Q 2853 3084 3261 2657 
Q 3669 2231 3669 1497 
Q 3669 778 3244 343 
Q 2819 -91 2113 -91 
Q 1303 -91 875 529 
Q 447 1150 447 2328 
Q 447 3434 972 4092 
Q 1497 4750 2381 4750 
Q 2619 4750 2861 4703 
Q 3103 4656 3366 4563 
z
" transform="scale(0.015625)"/>
      <path id="DejaVuSans-29" d="M 513 4856 
L 1013 4856 
Q 1481 4119 1714 3412 
Q 1947 2706 1947 2009 
Q 1947 1309 1714 600 
Q 1481 -109 1013 -844 
L 513 -844 
Q 928 -128 1133 580 
Q 1338 1288 1338 2009 
Q 1338 2731 1133 3434 
Q 928 4138 513 4856 
z
" transform="scale(0.015625)"/>
     </defs>
     <use xlink:href="#DejaVuSans-4a"/>
     <use xlink:href="#DejaVuSans-56" x="29.492188"/>
     <use xlink:href="#DejaVuSans-4d" x="97.900391"/>
     <use xlink:href="#DejaVuSans-73" x="184.179688"/>
     <use xlink:href="#DejaVuSans-20" x="236.279297"/>
     <use xlink:href="#DejaVuSans-28" x="268.066406"/>
     <use xlink:href="#DejaVuSans-4d" x="307.080078"/>
     <use xlink:href="#DejaVuSans-61" x="393.359375"/>
     <use xlink:href="#DejaVuSans-78" x="454.638672"/>
     <use xlink:href="#DejaVuSans-20" x="513.818359"/>
     <use xlink:href="#DejaVuSans-48" x="545.605469"/>
     <use xlink:href="#DejaVuSans-65" x="620.800781"/>
     <use xlink:href="#DejaVuSans-61" x="682.324219"/>
     <use xlink:href="#DejaVuSans-70" x="743.603516"/>
     <use xlink:href="#DejaVuSans-20" x="807.080078"/>
     <use xlink:href="#DejaVuSans-53" x="838.867188"/>
     <use xlink:href="#DejaVuSans-69" x="902.34375"/>
     <use xlink:href="#DejaVuSans-7a" x="930.126953"/>
     <use xlink:href="#DejaVuSans-65" x="982.617188"/>
     <use xlink:href="#DejaVuSans-20" x="1044.140625"/>
     <use xlink:href="#DejaVuSans-31" x="1075.927734"/>
     <use xlink:href="#DejaVuSans-36" x="1139.550781"/>
     <use xlink:href="#DejaVuSans-20" x="1203.173828"/>
     <use xlink:href="#DejaVuSans-47" x="1234.960938"/>
     <use xlink:href="#DejaVuSans-69" x="1312.451172"/>
     <use xlink:href="#DejaVuSans-42" x="1340.234375"/>
     <use xlink:href="#DejaVuSans-29" x="1408.837891"/>
    </g>
   </g>
   <g id="legend_1">
    <g id="patch_7">
     <path d="M 246.6075 122.862625 
L 407.72 122.862625 
Q 409.72 122.862625 409.72 120.862625 
L 409.72 48.472 
Q 409.72 46.472 407.72 46.472 
L 246.6075 46.472 
Q 244.6075 46.472 244.6075 48.472 
L 244.6075 120.862625 
Q 244.6075 122.862625 246.6075 122.862625 
z
" style="fill: #ffffff; opacity: 0.8; stroke: #cccccc; stroke-linejoin: miter"/>
    </g>
    <g id="line2d_50">
     <path d="M 248.6075 54.570438 
L 258.6075 54.570438 
L 268.6075 54.570438 
" style="fill: none; stroke: #ff7f0e; stroke-width: 1.2; stroke-linecap: square"/>
    </g>
    <g id="text_26">
     <!-- graalvm-ce-22.3.0-java17 -->
     <g transform="translate(276.6075 58.070438) scale(0.1 -0.1)">
      <defs>
       <path id="DejaVuSans-76" d="M 191 3500 
L 800 3500 
L 1894 563 
L 2988 3500 
L 3597 3500 
L 2284 0 
L 1503 0 
L 191 3500 
z
" transform="scale(0.015625)"/>
       <path id="DejaVuSans-2d" d="M 313 2009 
L 1997 2009 
L 1997 1497 
L 313 1497 
L 313 2009 
z
" transform="scale(0.015625)"/>
       <path id="DejaVuSans-6a" d="M 603 3500 
L 1178 3500 
L 1178 -63 
Q 1178 -731 923 -1031 
Q 669 -1331 103 -1331 
L -116 -1331 
L -116 -844 
L 38 -844 
Q 366 -844 484 -692 
Q 603 -541 603 -63 
L 603 3500 
z
M 603 4863 
L 1178 4863 
L 1178 4134 
L 603 4134 
L 603 4863 
z
" transform="scale(0.015625)"/>
      </defs>
      <use xlink:href="#DejaVuSans-67"/>
      <use xlink:href="#DejaVuSans-72" x="63.476562"/>
      <use xlink:href="#DejaVuSans-61" x="104.589844"/>
      <use xlink:href="#DejaVuSans-61" x="165.869141"/>
      <use xlink:href="#DejaVuSans-6c" x="227.148438"/>
      <use xlink:href="#DejaVuSans-76" x="254.931641"/>
      <use xlink:href="#DejaVuSans-6d" x="314.111328"/>
      <use xlink:href="#DejaVuSans-2d" x="411.523438"/>
      <use xlink:href="#DejaVuSans-63" x="447.607422"/>
      <use xlink:href="#DejaVuSans-65" x="502.587891"/>
      <use xlink:href="#DejaVuSans-2d" x="564.111328"/>
      <use xlink:href="#DejaVuSans-32" x="600.195312"/>
      <use xlink:href="#DejaVuSans-32" x="663.818359"/>
      <use xlink:href="#DejaVuSans-2e" x="727.441406"/>
      <use xlink:href="#DejaVuSans-33" x="759.228516"/>
      <use xlink:href="#DejaVuSans-2e" x="822.851562"/>
      <use xlink:href="#DejaVuSans-30" x="854.638672"/>
      <use xlink:href="#DejaVuSans-2d" x="918.261719"/>
      <use xlink:href="#DejaVuSans-6a" x="954.345703"/>
      <use xlink:href="#DejaVuSans-61" x="982.128906"/>
      <use xlink:href="#DejaVuSans-76" x="1043.408203"/>
      <use xlink:href="#DejaVuSans-61" x="1102.587891"/>
      <use xlink:href="#DejaVuSans-31" x="1163.867188"/>
      <use xlink:href="#DejaVuSans-37" x="1227.490234"/>
     </g>
    </g>
    <g id="line2d_51">
     <path d="M 248.6075 69.248563 
L 258.6075 69.248563 
L 268.6075 69.248563 
" style="fill: none; stroke: #ffbb78; stroke-width: 1.2; stroke-linecap: square"/>
    </g>
    <g id="text_27">
     <!-- graalvm-ce-22.3.0-java19 -->
     <g transform="translate(276.6075 72.748563) scale(0.1 -0.1)">
      <defs>
       <path id="DejaVuSans-39" d="M 703 97 
L 703 672 
Q 941 559 1184 500 
Q 1428 441 1663 441 
Q 2288 441 2617 861 
Q 2947 1281 2994 2138 
Q 2813 1869 2534 1725 
Q 2256 1581 1919 1581 
Q 1219 1581 811 2004 
Q 403 2428 403 3163 
Q 403 3881 828 4315 
Q 1253 4750 1959 4750 
Q 2769 4750 3195 4129 
Q 3622 3509 3622 2328 
Q 3622 1225 3098 567 
Q 2575 -91 1691 -91 
Q 1453 -91 1209 -44 
Q 966 3 703 97 
z
M 1959 2075 
Q 2384 2075 2632 2365 
Q 2881 2656 2881 3163 
Q 2881 3666 2632 3958 
Q 2384 4250 1959 4250 
Q 1534 4250 1286 3958 
Q 1038 3666 1038 3163 
Q 1038 2656 1286 2365 
Q 1534 2075 1959 2075 
z
" transform="scale(0.015625)"/>
      </defs>
      <use xlink:href="#DejaVuSans-67"/>
      <use xlink:href="#DejaVuSans-72" x="63.476562"/>
      <use xlink:href="#DejaVuSans-61" x="104.589844"/>
      <use xlink:href="#DejaVuSans-61" x="165.869141"/>
      <use xlink:href="#DejaVuSans-6c" x="227.148438"/>
      <use xlink:href="#DejaVuSans-76" x="254.931641"/>
      <use xlink:href="#DejaVuSans-6d" x="314.111328"/>
      <use xlink:href="#DejaVuSans-2d" x="411.523438"/>
      <use xlink:href="#DejaVuSans-63" x="447.607422"/>
      <use xlink:href="#DejaVuSans-65" x="502.587891"/>
      <use xlink:href="#DejaVuSans-2d" x="564.111328"/>
      <use xlink:href="#DejaVuSans-32" x="600.195312"/>
      <use xlink:href="#DejaVuSans-32" x="663.818359"/>
      <use xlink:href="#DejaVuSans-2e" x="727.441406"/>
      <use xlink:href="#DejaVuSans-33" x="759.228516"/>
      <use xlink:href="#DejaVuSans-2e" x="822.851562"/>
      <use xlink:href="#DejaVuSans-30" x="854.638672"/>
      <use xlink:href="#DejaVuSans-2d" x="918.261719"/>
      <use xlink:href="#DejaVuSans-6a" x="954.345703"/>
      <use xlink:href="#DejaVuSans-61" x="982.128906"/>
      <use xlink:href="#DejaVuSans-76" x="1043.408203"/>
      <use xlink:href="#DejaVuSans-61" x="1102.587891"/>
      <use xlink:href="#DejaVuSans-31" x="1163.867188"/>
      <use xlink:href="#DejaVuSans-39" x="1227.490234"/>
     </g>
    </g>
    <g id="line2d_52">
     <path d="M 248.6075 83.926688 
L 258.6075 83.926688 
L 268.6075 83.926688 
" style="fill: none; stroke: #2ca02c; stroke-width: 1.2; stroke-linecap: square"/>
    </g>
    <g id="text_28">
     <!-- openjdk-java17 -->
     <g transform="translate(276.6075 87.426688) scale(0.1 -0.1)">
      <defs>
       <path id="DejaVuSans-6b" d="M 581 4863 
L 1159 4863 
L 1159 1991 
L 2875 3500 
L 3609 3500 
L 1753 1863 
L 3688 0 
L 2938 0 
L 1159 1709 
L 1159 0 
L 581 0 
L 581 4863 
z
" transform="scale(0.015625)"/>
      </defs>
      <use xlink:href="#DejaVuSans-6f"/>
      <use xlink:href="#DejaVuSans-70" x="61.181641"/>
      <use xlink:href="#DejaVuSans-65" x="124.658203"/>
      <use xlink:href="#DejaVuSans-6e" x="186.181641"/>
      <use xlink:href="#DejaVuSans-6a" x="249.560547"/>
      <use xlink:href="#DejaVuSans-64" x="277.34375"/>
      <use xlink:href="#DejaVuSans-6b" x="340.820312"/>
      <use xlink:href="#DejaVuSans-2d" x="398.730469"/>
      <use xlink:href="#DejaVuSans-6a" x="434.814453"/>
      <use xlink:href="#DejaVuSans-61" x="462.597656"/>
      <use xlink:href="#DejaVuSans-76" x="523.876953"/>
      <use xlink:href="#DejaVuSans-61" x="583.056641"/>
      <use xlink:href="#DejaVuSans-31" x="644.335938"/>
      <use xlink:href="#DejaVuSans-37" x="707.958984"/>
     </g>
    </g>
    <g id="line2d_53">
     <path d="M 248.6075 98.604813 
L 258.6075 98.604813 
L 268.6075 98.604813 
" style="fill: none; stroke: #98df8a; stroke-width: 1.2; stroke-linecap: square"/>
    </g>
    <g id="text_29">
     <!-- openjdk-java19 -->
     <g transform="translate(276.6075 102.104813) scale(0.1 -0.1)">
      <use xlink:href="#DejaVuSans-6f"/>
      <use xlink:href="#DejaVuSans-70" x="61.181641"/>
      <use xlink:href="#DejaVuSans-65" x="124.658203"/>
      <use xlink:href="#DejaVuSans-6e" x="186.181641"/>
      <use xlink:href="#DejaVuSans-6a" x="249.560547"/>
      <use xlink:href="#DejaVuSans-64" x="277.34375"/>
      <use xlink:href="#DejaVuSans-6b" x="340.820312"/>
      <use xlink:href="#DejaVuSans-2d" x="398.730469"/>
      <use xlink:href="#DejaVuSans-6a" x="434.814453"/>
      <use xlink:href="#DejaVuSans-61" x="462.597656"/>
      <use xlink:href="#DejaVuSans-76" x="523.876953"/>
      <use xlink:href="#DejaVuSans-61" x="583.056641"/>
      <use xlink:href="#DejaVuSans-31" x="644.335938"/>
      <use xlink:href="#DejaVuSans-39" x="707.958984"/>
     </g>
    </g>
    <g id="line2d_54">
     <path d="M 248.6075 113.282938 
L 258.6075 113.282938 
L 268.6075 113.282938 
" style="fill: none; stroke: #d62728; stroke-width: 1.2; stroke-linecap: square"/>
    </g>
    <g id="text_30">
     <!-- openj9-0.33.0-java17 -->
     <g transform="translate(276.6075 116.782938) scale(0.1 -0.1)">
      <use xlink:href="#DejaVuSans-6f"/>
      <use xlink:href="#DejaVuSans-70" x="61.181641"/>
      <use xlink:href="#DejaVuSans-65" x="124.658203"/>
      <use xlink:href="#DejaVuSans-6e" x="186.181641"/>
      <use xlink:href="#DejaVuSans-6a" x="249.560547"/>
      <use xlink:href="#DejaVuSans-39" x="277.34375"/>
      <use xlink:href="#DejaVuSans-2d" x="340.966797"/>
      <use xlink:href="#DejaVuSans-30" x="377.050781"/>
      <use xlink:href="#DejaVuSans-2e" x="440.673828"/>
      <use xlink:href="#DejaVuSans-33" x="472.460938"/>
      <use xlink:href="#DejaVuSans-33" x="536.083984"/>
      <use xlink:href="#DejaVuSans-2e" x="599.707031"/>
      <use xlink:href="#DejaVuSans-30" x="631.494141"/>
      <use xlink:href="#DejaVuSans-2d" x="695.117188"/>
      <use xlink:href="#DejaVuSans-6a" x="731.201172"/>
      <use xlink:href="#DejaVuSans-61" x="758.984375"/>
      <use xlink:href="#DejaVuSans-76" x="820.263672"/>
      <use xlink:href="#DejaVuSans-61" x="879.443359"/>
      <use xlink:href="#DejaVuSans-31" x="940.722656"/>
      <use xlink:href="#DejaVuSans-37" x="1004.345703"/>
     </g>
    </g>
   </g>
  </g>
 </g>
 <defs>
  <clipPath id="p887994323c">
   <rect x="57.6" y="41.472" width="357.12" height="266.112"/>
  </clipPath>
 </defs>
</svg>
